<?xml version="1.0" encoding="UTF-8"?><svg id="uuid-d8035318-4afe-4212-861c-580fc6275736" xmlns="http://www.w3.org/2000/svg" width="1265.5" height="1023.3" viewBox="0 0 1265.5 1023.3"><g id="uuid-d3ea1837-8c62-4492-80a5-88c00eeb242b"><path d="m60.5,840.6s5.1,4.5,2.7,3c-2.4-1.4-5-3.4-5.2-3.7-.2-.3,2.5.6,2.5.6Z" fill="#333" stroke="#fff" stroke-miterlimit="10" stroke-width="2"/><path d="m48.1,835.2c.3.6,4.4,2.9,4.4,2.9l2.1-.5,2.4,1,1.3-.7,1.2-.3s-1.3-3.5-2.7-2.9c-1.4.6-.4,1.3-.4,1.3h-2.1c0,0-3.7-1.8-3.7-1.8,0,0-3.2-.6-2.4,1Z" fill="#333" stroke="#fff" stroke-miterlimit="10" stroke-width="2"/><path d="m43.4,830v1.6c0,0,1.7,0,1.7,0,0,0,1.1-2.3-1.7-1.7Z" fill="#333" stroke="#fff" stroke-miterlimit="10" stroke-width="2"/><path d="m40.8,829.7l-.3,3-4.8-.6s2.6-2.2,2.9-2.6c.4-.4,2.2-.5,2.1.2Z" fill="#333" stroke="#fff" stroke-miterlimit="10" stroke-width="2"/><polygon points="35.8 827.7 34.7 828.5 35.8 829.4 37.7 828.2 36.2 827.6 35.8 827.3 35.8 827.7" fill="#333" stroke="#fff" stroke-miterlimit="10" stroke-width="2"/><path d="m32.4,825l-2.9-2.3.4,2.6s-1.7.4-1.4.4,3.2,2.1,3.2,2.1l1.2.4-.5-2.1v-1.2Z" fill="#333" stroke="#fff" stroke-miterlimit="10" stroke-width="2"/><path d="m1260.7,90.5s-1.1-2.7-1.9-2.9l-1.4-2.9-.8-1.2.5-3.1s0-1.5-1.1-2.3c-1.2-.9-4.8-3.7-5.8-6.3-1-2.6-2.6-3.9-5.1-3.7-2.4.1-4.5-.1-4.5-.1,0,0-2.4-.9-3.2-1.5-.9-.6-2.6-.8-4.4-.7-1.8.1-4.7.2-4.7.2,0,0-2.2-.3-3-2.5-.9-2.2-7.2-18.8-7.2-18.8l-8.6-23.3-4-10.7s-2-3-3.2-3.5c-1.2-.5-2.2-.8-3.2-.4-.9.4-3,.1-5.2-1.5-2.2-1.5-3.9-1.6-4.9-1.6s-2.4.9-3.7.8c-1.3-.1-3.5-.5-5.1-1.7-1.7-1.1-3.4-1.6-3.4-1.6,0,0-1.5,4-4.3,5.2-2.8,1.1-5.8,2-6.4,2s-1.8-.5-3-2.3c-1.2-1.8-2.9-4.6-4.4-4.6l-14.3,37.9s-3.8,7.6.5,18.5c4.3,10.9,5.8,14,3.9,17-1.8,3-2,5.2-.7,7.8,1.3,2.6-.6,4.8-2.8,5.7-2.2.9-3,1.6-2.2,4.9.9,3.2.6,10-5.1,10.5l-3.2-.2,32.4,87.8s3.1,7.7,7.2,6.5c0,0,4.4-3.7,5.6-6.5,1.2-2.7,1.6-6.9.3-8.3,0,0,7.3-2,7.4-7.4,0,0-2.7,1.3-3.9,0-1.3-1.2-1.1-2.5,1.4-3.8,2.4-1.3,5.4-2.7,5.3-4.7-.1-2-2.1-3.8-3.2-4.8-1.1-1-1.6-3.6.2-4.8,1.8-1.2,3.3-2,3.3-2,0,0,2.4-1.5,3.4.8,1,2.3,2.7,8.4,5.7,6.5,3-1.9,1.7-3.4.6-4.5-1.2-1.1-3.1-4-1.7-6.8,1.5-2.7,3.7-3.8,3.8-6.1.1-2.2,0-3.9,2-4.4,1.9-.5,2.9.6,3.1,2.1.2,1.5.5,3.5,2.6,2.8,2.1-.7,2.7-1.5,1.6-3.4-1.2-1.9-1.1-4.3-.3-6.7.8-2.4.5-6.2-.2-10.1-.7-3.9-.6-9.5.3-11,0,0,3.5.6,4.3,4.6.7,3.9.4,6.1,2,5.8,1.6-.3,2.6-.8,2.8-3.2.3-2.4.6-4.4,2.7-4.4s5.9,3.8,5.9,3.8c0,0,2.2,2.4,3.7.9,1.5-1.5.7-2.1-.2-3.2-.9-1.1-2.3-3.3-1.4-4.4.9-1,1.7-.5,2.9,1,1.2,1.5,5.1,3.1,6.2,3.1,0,0-1-3.1-1.6-3.9-.6-.8,1.2-3.4,2.9-1.4,1.8,2,2.8,1.8,3.6.6.8-1.2-.3-2.5-1.2-3.1-1-.7-3.1-1.8-2.3-3.4.8-1.6,2.1-1.2,3-.4.9.8,2.8,2.4,4.5.3,1.7-2.1,2.3-4.9,2-5.2,0,0,3.8.5,7-2.3,3.2-2.8,3.3-5.8,5.5-7.6,0,0-1.6-1.8-3.3-1.8Z" fill="#999" stroke="#fff" stroke-miterlimit="10" stroke-width="2"/><path d="m747.6,330.6l53.6-4.3c0-2.2,2.5-5.5,3.8-7.3,1.4-1.8,3-3.9,3.1-6.7,0-2.8.9-5.1,1.9-6.8,1-1.7,2.8-7.2,2.8-9s-3.2-5.1-2.2-7.5c1-2.5,3.3-1.6,3.9-.9.6.7,3.5,1,4-2.3.5-3.2,2-6.6,1.7-9.5-.4-2.9-1.1-6.1-2.7-8-1.6-2-.8-5.9-.8-6.7,0-.8-.9-7-2.2-11.6-1.3-4.6-4.7-14.1-7.5-18.5-2.9-4.5-9.7-9.7-14.8-4.9,0,0-2.4,3-3.3,3.1-1,0-6.3,0-6.3,0,0,0-.2,2.5.5,3.7.7,1.2.8,2.8,0,3.9-.8,1.1-2.4,2.7-3.7,3.9-1.3,1.2-1.8,1.3-2.4,2.8-.6,1.5-1.9,3.4-4.5,2.3-2.6-1.1-8.5-4.4-7.7-9.6.8-5.2,4.3-8.4,5.7-8.4s3.4.2,3.4.2l2.6-2.9s-1.2-2.9.3-5.8c1.5-2.9,4.6-8.9,4.2-11.8-.4-2.9-1.9-8.5-3-11.8-1.1-3.3-1.7-5.3-3-7.7-1.3-2.5-2-8.1.3-5.9,2.2,2.3,5.5,3.8,3.9-.4-1.6-4.3-1.6-4.7-2.1-5.9-.5-1.2-.8-2.6-2.3-3.7-1.5-1.1-3.4-3.6-3.7-4.2-.3-.6-2.6,0-3.6.6-1,.6-2.9,1.1-5.1-.4-2.2-1.5-4.9-2.7-7.2-2.7s-5.6-.7-5.6-.7c0,0-1.7-1.4-2.9-1.3-1.3.1-2.3.4-4.1-1.8-1.8-2.1-5.8-6.6-7.5-6.6s-2.7,1.3-4.6,1.4c-1.9.1-3.3.3-3.5-.1-.2-.4,1.2,2.3-.3,3.6-1.5,1.3-4.3,3.5-1.8,7.1,2.6,3.6,2.8,4.5-.1,6.3-3,1.9-9.6,4-8.1,11.7,1.5,7.7-1.9,13.8-1.9,13.8,0,0-2.6,1.1-2.2-1.6,0,0-3.6,1.6-3.2-1.9.4-3.5,3-11.1,1.6-12.1-1.3-1.1-2.8,2.2-3.9,4.1-1.1,1.9-5.8,5.5-6.5,7.6-.7,2-3.6,6.9-8.2,8.4-4.6,1.5-8.6,5-5.4,12.6,3.2,7.6,1.5,10.9.1,13.6-1.4,2.7-4.9,8.8-2.4,14,0,0,1.1,1.9.7,4.6-.4,2.7,1.1,8.5,3,11.3,1.9,2.8,7.6,10.3,8,12.1.4,1.9,1.3,1.9.9,9-.4,7.2.8,12.8-.5,20.6-1.3,7.8-1.1,13.5-7.2,19.8-5.3,5.5-8.3,8.1-10.3,10.5l68-4,.8,2.4Z" fill="#999" stroke="#fff" stroke-miterlimit="10" stroke-width="2"/><path d="m423.9,441.8c0-9.7,4.9-8.4,4.6-13.2-.3-4.9-17.7-13.5-17.7-13.5-50.8,2-215.9-9.3-217.4-9.4l-12.4,127.6,254.2,10.2-2.4-87.9s-8.8-4.1-8.8-13.8Z" fill="#999" stroke="#fff" stroke-miterlimit="10" stroke-width="2"/><path d="m405.8,400.8c-.9,2.5.6,3.6,3,6.6,2.4,2.9,1.9,7.8,1.9,7.8,0,0,17.4,8.6,17.7,13.5.3,4.9-4.6,3.5-4.6,13.2s8.8,13.8,8.8,13.8l2.4,87.9-.4,22.7,153.5-4.5s.1,2.4,1.5,4.1c1.4,1.6,1.6,2.7.5,4.9-1.1,2.2-1.1,7.3,2.2,7.3s14.6-1.3,14.6-1.3c0,0,2.4-3.2,2.4-7s.8-6.2,1-6.9c0,.2-.2,0-.2-3.1s3.5-3.5,3.5-3.5l4.6.3c8.6-1.6,6.5-13.5,3.8-15.1-2.7-1.6-10.8-7.8-12.7-11.9-1.9-4.1-.8-11.3-2.2-15.4-1.3-4-4.1-7.8-6.5-7.8s-5.1-3-5.1-3c0,0-9.7-10.8-14-15.4-4.3-4.6-.3-5.4-.3-5.4,0,0,5.4-4.1,3.5-12.7-1.9-8.6-7-10-10.8-9.4-3.8.5-7.3-1.6-7.6-4.9-.3-3.2-1.6-6.8-5.1-8.4-3.5-1.6-3.5-6.5-3.5-6.5,0,0-5.9-2.7-8.1-3.5-2.2-.8-4.6-3.8-7.8-6.5-3.2-2.7,1.1-8.9.5-13-.5-4.1-3-12.1-3-12.1-1.5,0-2.7-2-3.2-3.9-.5-1.9-.7-2.8-2.8-2.8s-2.4-.4-4.3-3.4c-1.9-3-5.7-2.6-5.7-2.6l-117.5,1.7c2.1,2.1.8,4,0,6.3Z" fill="#999" stroke="#fff" stroke-miterlimit="10" stroke-width="2"/><path d="m131.7,357.6l-.2,1.2,65.5,8.2-3.8,38.6s0,0,0,0v-.8c0,0,0,.8,0,.8,1.5.1,166.6,11.5,217.4,9.4,0,0,.5-4.9-1.9-7.8-2.4-2.9-4-4.1-3-6.6.8-2.3,2.1-4.2,0-6.3h-.3s.3,0,.3,0c-.2-.2-.5-.5-.8-.7-3.2-2.4-8.2-5.3-8.3-15.5-.1-10.2.2-18.2-3.1-21.3-3.3-3-3.9-16.5-3.9-16.5,0,0-.5-5.2-3.2-6.3,0,0-.9-1-.9-5s-5.5-10.2-5.5-10.2c0,0,.2-6.5-.7-7.3-.9-.8-19.7-9.6-19.7-9.6,0,0-5.8-.3-8.9-.7-3.1-.4-6.7-3.7-13.9,0-7.2,3.7-12.7,4.7-15.5,2.4-2.8-2.2-8.5-5.2-11.4-5.2s-6.4-2.9-10-2.9-9.6-1.5-12.5-3.4c-2.8-1.9-4.2-3-7.2-3s-8-3.5-8-3.5l-132.1-9.7s-9.1,74.5-8.3,81.6Z" fill="#999" stroke="#fff" stroke-miterlimit="10" stroke-width="2"/><path d="m691.7,818.1c0-2.7,5.4-1.9,5.1-4.6-.3-2.7-2.7-4.6-2.7-7.3s.8-12.7-2.7-13.5l91.5-5.9c1.3-7.8-3-16.2-4.6-27.3-1.6-11.1.5-23.2,4.6-26.4,4-3.2,1.1-8.4,1.1-8.4l-13.5-24-17.5-83.1c-37.3,5.3-94,6.5-94,6.5,0,3.2,2.8,5.3,2.8,5.3l-4.9,130.8,4.5,63.8c3-.1,4.8-.1,5.9-1.5,1.1-1.4,1.9,0,3.2.1,1.3.1,4.2-.8,4.2-2.3s.6-2.4-.5-3.4c-1.1-1-.6-5.4-.6-5.4,0,0-.8-.7.3-2.5,1.1-1.8,1.4-3.9-.4-7.7-1.8-3.7-2.4-7.1.9-10.8,0,0,.7-.8.7-1.9,0,0,.6,3,1.3,5.6.7,2.5,2.9,5.2,2.9,5.9s-2.2,3.3-1.8,5.8c.4,2.4,4.6,5.6,4.7,7.5,0,1.9-.4,5.8,1.2,6.3,1.6.5,4,2.8-.7,4.7-4.8,1.8-8.5,2.5-8.4,3.7.1,1.2,3.3.7,5.2.1,1.8-.6,2.8-.9,5.5-1.3,2.6-.4,9.5-.9,10.2-4.6,0,0-3.5-1-3.5-3.7Z" fill="#bd141b" stroke="#fff" stroke-miterlimit="10" stroke-width="2"/><path d="m899.1,783c-2.7,0-2.2,5.4-2.2,5.4,0,0-1.6,8.9-5.4,10-3.8,1.1-4-5.7-4-5.7l-98.3,3.8-6.2-9.7-91.5,5.9c3.5.8,2.7,10.8,2.7,13.5s2.4,4.6,2.7,7.3c.3,2.7-5.1,1.9-5.1,4.6s3.5,3.7,3.5,3.7c0,0,9.7-.3,9.3-4.8-.4-4.5-2-5.7-.6-5.8,1.4-.1,1,2.6,2.4,2.5,1.4-.1,2-1.2,2.5-3.3s.8-3.7,2.2-3.5c1.4.2,4.4,2.2,2.1,4.9-2.3,2.7-5.9,4.4-5.6,7.4.3,3,3.8,4.4,7.8,4.1,4-.4,11.6-.8,11.6-3.8,0-3-6.2-.9-8.8-.5-2.6.4-5.9.2-5.8-1.1.1-1.3,3.8-2.3,7-2.3s6.5-.8,6.5-.8c0,0,1.7-4.7,5.4-5,3.7-.3,10.9.3,10.8,2.5-.1,2.2-3.1,3.6-4.6,2.9-1.5-.7-5.7-.9-5.7.4s2.1,3.7,5.3,3.3c3.2-.5,8.5-3,10.9-2.5,2.5.6,6.8,4.1,7.9,5.5,1.1,1.4,5.2,2.4,4.4-.9-.8-3.3-.5-7.6,3.2-7.4,3.7.2,3.4,2.7,2.8,3.8-.7,1.1-.6,4.5,1.4,4.4,2-.2,4.3,0,4.4,1.5.1,1.5-1.1,3.3-3.2,2-2.1-1.3-5.6-2.7-5.6-2.7,0,0,.3,3.1,1.9,4.7,1.6,1.6,7.8,5.1,7.8,8.1s.2,6.2.2,6.2c0,0,0,3.1,2.6,2,2.6-1.1,4.5-2,6.8-2.2,2.3-.2,2.9-2.2,2.9-2.2,0,0,1.3-.8,2.7-.3,1.5.5,4.3-1.6,4.8-2.2.6-.6,2.8-.8,3,.5.3,1.3.3,1.5-1.2,2.7-1.5,1.3-4.5,3.3-3.1,4,1.4.7,4.6.8,6.8-1.4,2.2-2.2,3.5-4.3,2-6.1,0,0,3-1.2,2.2-3-.8-1.9,4.2-2.9,6.4-2.6,2.2.3,4.5.5,3.7-2.8-.8-3.3-.6-5.3,1.9-5.4,2.5-.1,2.9-.8,2.9-1.9s3.2-1.8,5-.8c1.7,1,3.7,1.9,5.2,1.9s5.1-1.4,5.2,1.8c0,3.2-.7,7.9,2.6,8.2,3.3.3,3.6.3,5.6,1.6,2,1.3,3.8.1,4.3-.3.5-.4,3.7.3,2.5,2.6-1.2,2.3-2.3,5.2,1.7,7.6,4,2.5,9.1,2.8,9.1,6.3s.2,9.4.2,9.4c0,0,6.7.1,10.4-3.7,0,0,1.3-1.7,2.6-1,1.4.8,2,2,.9,3.9-1.1,1.9,0,3.4,1.7,5,1.7,1.6,4.4,3.2,4.8,7.9.5,4.6,1.2,8.2.8,11.5-.4,3.3-.6,5-2.2,8-1.7,3.1-2.9,5-3.6,7.6-.7,2.6-2,4.2-1.7,7,.3,2.7-.6,5.4,2.4,6.3,3,.9,4.4,1.6,4.6,3,.3,1.4,1,4.1,2.6,3.9,1.6-.1,3.9-3.1,1.7-6.9-2.2-3.8-3.2-5.6-3.7-8-.5-2.4,2.3-3.5,3.7-1.3,1.5,2.2,1.3,8.4,3,8.8,1.7.4,2.2-.6,2.1-2-.1-1.4,0-3.4,1.2-3.4s3.6,2.3,3.2,5.4c-.4,3-1.9,5.2-2.3,6.6-.4,1.5-1.3,3.3.8,4,2,.6,3.9,2.6,1.8,3.4-2.2.8-3.2-1.7-3.7.2-.5,1.8-.6,2.8-1.9,2.4-1.3-.4-3.7-1.8-5.3-1.3-1.6.5.8,2.6.8,2.6,0,0,2.3,2,2.1,3.8-.2,1.9-1.9,4.4-1.9,4.4,0,0,.6,1.6,1.3,2.3.7.8,1.5,2.8,2.9,3.1,1.4.2,2.3.7,3.2,2.5,1,1.8,1.3,3.2,2.7,3,1.5-.2,3.5-1.8,4.4.3.9,2.1,1.7,3.7,2.8,3.6,1.1-.1,1.7-1.4,1.8-2.9.2-1.5.8-5.4,4.9-5.4s5.1,2.9,3.1,5c-2,2-4.3,4.3-2,5,2.2.7,4,3.4,2.9,5.3-1.1,1.9-4.8,1.9-7-.3-2.2-2.2-4-4.3-5.5-2.1-1.5,2.2,2.6,6.5,2.6,6.5,0,0-1.3,4.5,1.2,6,2.5,1.6,4.6,1.5,5.8.9,1.3-.7,3.2-.4,3.9.8.7,1.2,2.8,1.2,3.2-2.1.4-3.3,2-6,4.1-5.5,2,.5,2.1,3.2,2.2,4.7.1,1.4.9,8.6,2.2,11.5,1.4,2.9,2.7,5.3,4.4,5.2,1.6-.1,2.1,1,2.2,1.8.1.8,1.3,2.2,2.4,1.2,1.1-1,4.3-1.5,3.1.5-1.2,2-2.3,3.6.1,3.7,2.4.1,6.7.4,7.8.2,1.1-.3,3.4-2.4,5.2-2,1.8.4,1.6,4.2,1.7,5.4.1,1.1.9,3.9-1.8,5.1-2.7,1.1-8.9,3.7-7,5.9,1.9,2.1,6.1-1.2,7.1-2,1.1-.8,2.4-2,2.9-1.2.5.8-.4,2.3-4.3,5.1-3.9,2.8,1.3,4.8,4.8,1.9,3.5-2.9,5-3.1,6.5-1.7,1.5,1.4,2.5,4.6-.7,5.5-3.2.9-8.9-.3-11,1-2.2,1.3-2.8,3.5-2.8,3.5,0,0,2.3,1.7,3.8,2.9,1.5,1.2,3.7,1.4,5.1,1.4s4.7-3.2,6-3.3c1.4,0,2.1,3.1,4.7,2.8,2.6-.3,1.9-4.1,1.9-4.3s0-2.5,4.4-3.7c4.4-1.3,8.7-5.8,8.7-5.8,0,0,1.5-1,0-2.4-1.5-1.5-3.7-4-3.8-5.9-.1-1.9-.4-4.2.7-7.3,1.1-3.1,3.1-8.5,5.3-11.4,2.2-2.9,4.9,0,5.3-2.9.4-2.9-1.9-8-2.1-9.9-.2-1.9-.7-2.9-.4-4.7.4-1.8,1.2-6.4,1.1-7.1-.1-.8-2.1,1.5-2.8,1.5s-1.9-4.2-1.3-5.9c.6-1.8,2.7-1,2.7-2.4s0-4.9-3.1-4.1c-3,.8-4.7-.9-4.7-3.5s-.7-7.5-1.2-9.6c-.5-2-.5-4-2.2-6-1.7-2-2.7-3.6-2.6-5.2.1-1.6.9-3.5,2-1.3,1.1,2.3,4.2,6.3,4.9,8.4.7,2.1,1.1,11.9,5,10.1,3.9-1.8-2.8-11.7-4.5-14.7-1.7-2.9-3.9-8.7-6-11.5-2.1-2.9-3-6.9-4-9.6-1-2.7-1.8-4.5-3.2-4.2-1.5.3-1.2,2.1,0,4.4,1.3,2.4,1.8,6.1.9,5.7-.9-.4-2.8-3-4.7-6.1-1.9-3.1-1.7-5.4-1.7-5.4,0,0,1.1.3,2.1-.8,1.1-1,.7-3.2.1-4.2-.6-1-2.7-8.4-4.6-8.4-1.9,0-.2,2.7-.2,2.7,0,0,.7,3.2.7,5s-.6,1.8-.6,1.8c0,0-3.3-1.2-4.7-5-1.4-3.8-2.1-5.6-4.3-9-2.2-3.4-5.1-9.3-5.1-10.7s1.8-2,2.6-.7,3,2.8,3.9,2.5c.9-.4,2,4,3.7,2.5,1.7-1.5,1-5.2-3.3-10.9-4.3-5.7-5-6.3-6.1-5.5-1.1.8-.7,2.3-.7,2.3,0,0-1.3.6-2.4-1.5-1.1-2.1-3-3.6-5.3-3.4l-2.7-3.2s-1-1.3.2-2.5c1.2-1.3,2.5-.2,2.5-.2,0,0,3.6,3.4,4.4,2.4.8-1-1.7-3.6-1.7-3.6,0,0-2.1-2.6-2.6-3.9-.5-1.3-1.5-2-2.7-3.7-1.3-1.7-3.5-4.7-4.3-7.5-.8-2.8-.8-5.9-1.7-8.3-.9-2.4-1.5-5.3-2.9-7-1.4-1.7-2.3-3.1-2.4-5-.1-1.8-.1-6.7-1.1-9.3-1-2.6-1.6-3.4-2.4-5.4-.8-2-1.4-4.5-.8-5.6.7-1.1,0-6,0-6.4l-1.1-.2c-8.1,4.3-14-1.1-16.7-1.1Z" fill="#999" stroke="#fff" stroke-miterlimit="10" stroke-width="2"/><path d="m902.8,686.8c-2-4-7.3-6.9-12.2-8.9-4.9-2-8.9-10.5-8.9-10.5,0,0-41.3-39.7-45.4-45.8-4-6.1,2-8.9,2-8.9l.4-4-85.9,8.9,17.5,83.1,13.5,24s3,5.1-1.1,8.4c-4.1,3.2-6.2,15.4-4.6,26.4,1.6,11.1,5.9,19.4,4.6,27.3l6.2,9.7,98.3-3.8s.3,6.8,4,5.7c3.8-1.1,5.4-10,5.4-10,0,0-.5-5.4,2.2-5.4s8.6,5.4,16.7,1.1l1.1.2c0-.4-.5-1.7-2.8-4.5-2.3-2.7-3.1-6.9-.8-9.6,2.4-2.6,4.7-4.2,2.8-6.9-1.9-2.7-2.3-3.6,0-5.5,2.2-1.9,1.4-3,.6-4.9-.8-1.9-.1-7.1,4.5-7.3,4.6-.3,4-3.2,3.2-5.8-.8-2.6,0-3.6,1-5.8,1.1-2.1,6.3-5.9,6.4-9,0-3.1-3.8-9.6-12.1-5.2,0,0-1.7.9-1.8-2-.1-2.9.5-8.1-.4-9.9-.6-1.4-.2-2.2.4-2-1.8-1.7-6.3-6-8.6-7-2.8-1.2-4.5-8.1-6.5-12.1Z" fill="#bd141b" stroke="#fff" stroke-miterlimit="10" stroke-width="2"/><path d="m618.8,823.8c-1.6-.8-3.8-1.1-3.8-3.2s-.3-4.1-2.7-6.2c-2.4-2.2-2.4-5.9-.8-8.6,1.6-2.7-.3-8-.3-8,0,0-65,2.9-66,1.6-2.3-3.1,2.6-4.5,2.6-8s.8-8.1,3.8-11.9c3-3.8,3.2-4.9,4.6-7.3,1.4-2.4,1.6-5.4,3.5-8.4,1.9-3,2.7-7.8,3-11.9.3-4.1,6.8-7.8,6.8-11.3s-2.4-5.4-4-7.8c-1.6-2.4.5-3.8-1.1-6.5-1.6-2.7-3-4.6-.8-7.6,2.2-3-.4-6.5-.4-6.5l-109.3.8-2,35.6s6.5,6.2,7,12.1c.5,5.9,3,8.9,5.1,8.9s2.7,8.6,2.7,12.7-1.3,9.5,2.2,10.5c3.5,1.1,6.2,4.9,4.6,9.7-1.6,4.9-4.9,11.6-2.7,18.1,2.2,6.5,1.3,17.3-.3,18.6-.7.6-1.3.7-1.8.7,1.4.7,3.6,2.2,1,3.9-3.5,2.4-6.7,5.4-4.2,11.2.3-1,1.5.4,6-1.1,4.5-1.5,6-3.2,8.4-2.9,2.4.3,7.8-.6,5.8-3.1-2-2.5-4.6-3.6-4.7-5.9-.1-2.2-.4-5.8,2.1-5.8s3.9,3.7,3.9,6.4-.5,5.2-.5,5.2c0,0,6,2.7,6.4,2.7s1,1.3,1.1,2.7c.1,1.4,2.2.5,4.7,2,2.4,1.5,4.1,2.4,7.2,2.4s6.2-2.6,11-.4c4.9,2.2,9.3,2.7,12,1.9,2.7-.8,4.3-.3,4.6-.6,0-.1.1-.3.2-.6.4-1.4-1.4-3.9-4-3.9s-5.2-1.9-4-4.6c1.1-2.6,1.6-3.6,5.5-3.8,3.8-.2,4.7-1.2,7.3,1.6,2.6,2.8,5.3,4.7,4.9,1.8-.4-2.8.3-6.1,3.7-3.6,3.4,2.4.7,9.9.7,9.9,0,0-2.2,3.4,1.3,3.9,3.5.5,6.6-.2,7-3.6.4-3.4,1.7-4.6,3.1-4.2,1.4.3,2.4,1.1,1.2,4.1-1.2,3-1.1,8.8,1.3,9.1,0,0-7,2.4-5.7,4.8,1.3,2.3,3.4,3.5,7.3,1.8,3.8-1.7,9.2-3.7,9.3-1,.1,2.7-2.5,5,.3,6,2.8,1,7,.1,9.7,2.4,2.7,2.3,7.7-1.6,8-4.6.3-2.9-4.8-5.7-4.1-8.2.7-2.5,4.5,1.8,4.8,2.1.3.3,1.5,1.7,2.6.2,1.1-1.5,3.1-.9,2.4.4-.7,1.3-2,3.2-1.4,4.9.6,1.6,1.4,3.8,4.4,3,2.9-.8,3.8-1.7,5.4-2.7,1.5-1,3.2-1.6.7-4.8-2.5-3.1-2.9-8-.7-8.8,2.2-.8,4.2-.2,5.6,1.5,1.4,1.7,3,3.5,4.7,3.5s3.9,1.8,1.4,3.2c-2.5,1.4-1.6,2.8,1.4,3.2,3,.4,5,3.3,2.2,6.1-2.7,2.7,1.4,3.4,2.4,2.1,1-1.3,2.6-2.1,2.6-2.1,0,0-.4,2.1,1.8,2.4,2.2.3,3.9-2,3.9-2,0,0-.1,1.6,1,1.8,1.1.2,6.2-.6,5.4-4.1-.8-3.5-4.9-1.3-4.9-1.3,0,0-5.3-1.4-7.3-3.9-2-2.4-.4-3.6,2.2-1.7,2.6,1.9,6.3,2.4,7.7,2.4s3.8-.6,3.3-1.6c-.5-1-1.7-1.7-4.1-1.7s-6.7-3.7-8.4-4.5c-1.7-.7-5.8-3.2-6.5-5.9-.7-2.6-.5-3.6,1.1-3.2,1.6.4,4.5.7,3.4-.5-1-1.2-2.4-2.4-3.3-2.4s-2.7-.9-2.1-1.8c.6-.9,1.7-1.3,2.6-1.2.9.1,2.3,2.2,4.1,2.1,0,0,3.3,1,2.5-1.7-.8-2.7-2.2-3.5-1.5-5.5.7-1.9,3.3-3.4,3.1-5.3-.2-1.8-1-4.4-3.2-4.1-2.2.3-5.1,2.2-5.2,6.4-.1,4.1-1.2,5.7-2.6,3.6-1.4-2-3.6.1-4.2.9-.5.8-4.4,1.6-5.3-1-.9-2.6-1.3-4.9,1.6-4.6.2,0,.4,0,.5,0l.7-1.2,1.6-.9s9.2-1.6,8.2-4.5l-12.2-.7s-4.9.9-8,3.4c-3.1,2.5-5,5.8-8.3,3.1-3.3-2.6-6.3-6.8-9-5.3-2.7,1.5-7.6,2.4-7.4-1.8.2-4.3,2.2-5.6,6-3.2,3.7,2.3,8.4,2.5,7.2,0-1.2-2.6-2.8-5.4,1.4-5.3,4.3.1,11.3.4,11.3.4,0,0,3.9-1.2,5.9,1,1.9,2.2,8.4,7.2,13.6,5.8-1.1-2.8-1.5-5.8-3.2-6.7Z" fill="#bd141b" stroke="#fff" stroke-miterlimit="10" stroke-width="2"/><path d="m925.5,605l-19.4-11.7-45,2.4-22.3,13-.4,4s-6.1,2.8-2,8.9c4,6.1,45.4,45.8,45.4,45.8,0,0,4.1,8.5,8.9,10.5,4.9,2,10.1,4.9,12.2,8.9,2,4.1,3.6,10.9,6.5,12.1,2.3,1,6.9,5.3,8.6,7,.2,0,.5.3.7.7,1,1.5,1,5.5,3,7.2,2,1.7,4.8,3.4,7.6,3.3,2.8-.2,3-1.7,3-1.7,0,0,2.3,3,3.7,2.6,1.5-.4.9-1.7.9-2s-.7-2.4,3.6-2.6c0,0,3.8-.1,3.6-1.8-.2-1.7-1.2-3.9-6.8-3.9s-5-3.1-5-3.1c0,0,1.3-3,4.2-2.5,2.9.5,6.2,2.8,6.2,2.8,0,0,.2-4.2,1.9-4.3,1.7,0,2.6,3.4,4.4,3.1,1.8-.3,5.7-1.9,10.5-7.4,4.8-5.5,6.8-6.5,8.3-7.8,1.5-1.3,4-4.6,3.8-9-.2-4.3-.6-5.3,1.2-6.2,1.7-.9,3.5.6,3.8,1.4.3.8,2.3,2.4,2.8.2.5-2.3.3-4.3,2.6-6.3,2.3-2,4.6-4.1,4-5.3-.6-1.1-.6-3,.1-4.9.7-1.9,2-4.8,2-4.8,0,0,1.3-1.3,2.2-2.5.9-1.2,1.8-4.5,4.5-7.3,2.7-2.8,9.2-9,9.2-9l-45.8-35.5-32.8,5.7Z" fill="#bd141b" stroke="#fff" stroke-miterlimit="10" stroke-width="2"/><path d="m661.9,629.3s-2.8-2-2.8-5.3l-66-2s-1.8-.4-1.5,2.3c.3,2.7-2.2,3.8-3.2,5.1-1.1,1.4-3.5,4-3.5,4,0,0,1.4.5.3,3.2-1.1,2.7-4,7-4,8.4s-6.7,11.1-9.2,14c-2.4,3-10.3,13.2-10,21.3.3,8.1,6.5,8.1,4.6,11.1-1.9,3,.8,5.7.8,7s-6.5,7.6-4.2,13.8c0,0,2.6,3.5.4,6.5-2.2,3-.8,4.9.8,7.6,1.6,2.7-.5,4,1.1,6.5,1.6,2.4,4,4.3,4,7.8s-6.5,7.3-6.8,11.3c-.3,4-1.1,8.9-3,11.9-1.9,3-2.2,5.9-3.5,8.4-1.3,2.4-1.6,3.5-4.6,7.3-3,3.8-3.8,8.4-3.8,11.9s-4.9,4.9-2.6,8c1,1.3,66-1.6,66-1.6,0,0,1.9,5.3.3,8-1.6,2.7-1.6,6.5.8,8.6,2.4,2.2,2.7,4,2.7,6.2s2.2,2.4,3.8,3.2c1.6.8,2,3.9,3.2,6.7,0,0,2.9.9,5.8-1.5,2.8-2.4,5.9-5.7,9-5,3.1.7,4.3.6,7.5.6s6.1-3.2,8.6-3.2,5.6,2.6,8.6,2.5l-4.5-63.8,4.9-130.8Z" fill="#bd141b" stroke="#fff" stroke-miterlimit="10"/><path d="m449.8,692.6l-3.7-1.9-5.7-2.8c0,1.5-.5,2.2-1.4,2.4-1.3.8-3.8.4-8.6-3.6-2.6-1.8-5.1-3.9-6.7-5.3-3.5-2.5-5.4-3.1-7.7-3.1-.4,0-1.2,0-2.4.2-.1,0-.3,0-.4,0-3.4.4-6.9.5-9,.6-4.7.3-2.1.8-6.9.8h-10c-2,0-4.3,1.3-6.5,2.5-1.6,1-3.1,2-4.1,2s0,0,0,0c-.3,0-.5.1-.7.1-2.7,0-3-1.9-3.2-3.8-.5-1.5-2.1-3.5-4-4.1-.4,0-1.1,0-2-.2-2.1-.1-4.2-.6-6.1-1.8-1.9-1.2-3.2-2.1-4.3-1.8-1.4.8-2.4,3.3-2.4,5.7,0,.2,0,.4,0,.6-.2,1.2-.8,1.8-1.5,1.9-.8.5-1.7.5-2.3-.5-1.2-2.2-1.4-4.3-3.4-3.6-1.5.4-1.6,1.9-2.6,2.6-1.3,1.5-4.7.5-8.3-1.2-.2-.1-.4-.2-.6-.2-.4,0-.9-.1-1.3-.1-.7,0-1.4.2-2.1.4-2,.9-3.9,2.6-7,2.6-3.2.2-5-2.9-6.8-5.7-.4-.6-.8-1.5-1.2-2.6-1-2-1.9-4-2.7-5.6-1.6-2.3-3.6-3.5-6.4-1.1-1,.9-1.6,1.7-2,2.6.1,1.5.6,4.3-.3,4.3.3,1,.6,1.1-.5-.2-.3-.2-.7-.7-1.3-1.4-3.6-3.7-7.7-5.1-11-5.5-1.3-.1-2.3-.1-2.8-.1-.1,0-.2,0-.3,0,0,0-.7-.5-1.8-1.2-1.1-.6-2.7-1.4-5.2-2.3-.2,0-.4-.2-.6-.2-.4,0-.7-.1-1.1-.1-4-.2-6.7-6.1-7.5-7.5-.5-.9-2.3-3.4-4.8-5.1-1.4-.7-3-1.3-4.7-1.8,0,0-.2,0-.3,0-4.9,0-12.8-1.2-15-2-.7-.3-1.4-.5-2.1-.7-1.5-.4-2.5-.7-2.5-.7l2.4-82.2-101.2-10.1-15.8,190.3-123.1-11.7-.8,7.7-1.3-.2c.8.6,2.9,2.1,3,3,.1,1.1.4,3.7.4,3.7l4.8,7.5s2.8,2.4,4.8,2.7c1.9.3,8.6,6.9,10.2,11.1,1.6,4.3,2.7,6.3,4.9,8,2.1,1.7,7.3,7.5,7.7,8.6.4,1.1,1.7,1.1,2.2,1.1s1.9.7,2.3,2.1c.4,1.4,1.6,3.2,4.4,5,2.7,1.7,7.2,5.7,7.8,8.9.6,3.2,2.4,13.5,3.4,17.2,1,3.7,3.5,11.3,3.9,14.4.4,3,2.2,6.7,3,7.2.8.5,1.2,3.5,4.8,7.3,3.5,3.7,9.2,7.8,12,7.8l5.5,4.7s3.7.6,5,.5c0,0,2.7,2.5,5.3,2.8,2.5.3,3.1,3.1,4.7,4.7,1.5,1.5,6.6,7.5,10.3,6.5,3.7-1,5.2-7,7.4-8.9,2.2-1.9,4.9-7.9,5-11.1.1-3.2,2.6-7.1,5.6-8.6,2.9-1.5,4.9-5.9,4.9-5.9,0,0,4.1-4.5,8.2-1.8,4.2,2.7,7.5,1.8,7.5,1.8,0,0,.8,1.4,4.7,2,3.8.6,7.2,1.6,7.6,2.7,0,0,3-1.9,4.8.2,1.7,2.1,3.9,1,3.9.6s4.4.5,7.5,3.2,6.5,2.8,9,3.7c2.5.9,4,1.4,4.8,4.8.7,3.3,8.2,9.1,10,10.2,1.8,1.1,2.5,6-.4,5.6,0,0,12.9,7.7,10.2,13.7,0,0-.6.9.6,2.5,1.2,1.6,7.1,11.4,8.4,14.5,1.3,3,2.6,4.3,3.8,4.8,0,0,.2,2.1.7,3.7.5,1.6,7.4,14.7,7.4,14.7,0,0,2.1,5.5,5.5,7.5,3.3,2,9.3,4.5,9.3,9.7s0,10,2.2,13.2c2.2,3.1,2,8.5,1.5,9.8-.5,1.3.2,2.5,1.3,3.6,1.1,1.1,3.3,6.2,5.8,6.7,2.4.5,6,4.2,6,8.3s4.9,8.3,8,9.4c3.1,1.1,4.6,3.2,4.8,5.5.2,2.2,2.5,3.2,2.9,2.1.4-1.1,4.4-.5,5.9,1.6,1.5,2.1,3.9,2.1,5.7,2.1s19.3-.4,19.3-.4c0,0,6.6-.4,8.4,3.4,1.8,3.8,6.3,9.6,10.9,7.5,4.7-2.1,1.3-8.1.7-8.4-.6-.3,3.1-5.6,3.1-5.6,0,0,2.3-1.6,1.3-6-1-4.4-2.3-5.7-1.7-9.5.6-3.8-3.5-12.3-2.8-20.8.7-8.4,2-12.9,4.2-17.7,2.1-4.8-1.1-5.6-3.6-.9-2.5,4.7-5.3,11.3-4.7,20,.6,8.7,2.5,12.8,2.8,17.9.3,5.2,1.3,9.7,2.5,10.9,1.2,1.2.3,4.7-.7,3.4-1-1.2-3.2-5.8-4.4-7.1-1.1-1.3-1.1-3.8-1-6.2.1-2.3,0-7.9-1.9-10.3-1.9-2.4-3.8-5.7-3.7-10.1.1-4.4-.9-6-3.9-7.3-3-1.3-4.5-4.4-4.3-5.2.2-.8,1.1-.7,1.8.2.7.9,1.1.7,2.1.7s5-7.3,5-7.3l.8,11.9s2.8,2.4,3.1-.6c.3-3,2.7-10.2,4.7-14.3,1.9-4,.9-10.6-3.8-11.4-4.8-.8-8.8-3.7-8.5-3.7s6.2,1.2,9-.1c2.8-1.3,6.4-.7,6.9,1.6.5,2.3,2.4,1.8,3.2,0,.8-1.8,3.9-2.4,6.5-15.3,0,0,0-1,2.4-1s3.8.7,4.5-2c.6-2.7,2-9.9,6.5-2.9l.7,1.1s-8.1,3.9-12.5,11.8c0,0-2.9,4.7-3.4,7.6-.5,2.9,2.5,2.4,3.7.4,1.2-2,.7-5.3,3.7-8,3-2.7,11.3-7.7,12.2-9.6.9-1.9,2.2-3.3,2.2-3.3,0,0,.4-.9-2-4.2-2.4-3.2-5.6-8.8-4.4-10.1,1.2-1.3,5.2,1.8,6.4,3.4,1.2,1.6-1.4-5.3,1.6-4.6,3,.7,2.1,2.4,2.1,2.4,0,0,4.5-5.1,5.8-3.1,1.3,1.9-3.3,6.3-3.5,7.4-.2,1.1-5.4,5.4-5.3,7,.1,1.6.3,1.9,2.6,1,2.3-.9,18-10,18-10,0,0,.8-1.2-1.5-.2-2.3,1-5.5,2.9-5.5,2.9,0,0-5.7.1-3.5-1.6,2.1-1.7,9.6-5.2,10.3-3.6.7,1.5.2,2.6.9,2.6s5.7-3.3,7.1-5.5c1.4-2.1,4.8-2,6.1-1.7,1.3.3,2.8.2,5.1-1.1,2.2-1.3,3.1-1.9,4.8-1.9s6-3.2,6.1-6.2c0,0,3.3-.9,4.3-2.6,0,0,2.6,5.1,5.5,1.4,2.8-3.6,6.3-6.4,4.2-7.3-2.1-.9-6.4.8-7,1.9-.6,1.1-1.1-1-1.1-4.1s.5-8.6-2.7-11.3c-3.2-2.7.1-4.7,2.5-4.8,2.4-.1,7.4-4,7.4-4,0,0,5.1-2.7,3.8,1-1.2,3.7-2.2,7.1-1.3,8.5.9,1.4,3.7,3,6,1.3,0,0-4.5,2.7-7.3,3.7-2.8,1-2.4,3.9,1.4,3.2,3.8-.7,10.5-4.2,10.5-4.2,0,0,3.2-5.3,6-6.4,2.7-1.1,8.3-.2,10.2-.2s5.5-1.2,5.8-2.2c-2.5-5.8.6-8.8,4.2-11.2,2.6-1.8.4-3.3-1-3.9-.6,0-.9-.4-.9-.4,0,0,.4.1.9.4.5,0,1.1,0,1.8-.7,1.6-1.3,2.4-12.1.3-18.6-2.2-6.5,1.1-13.2,2.7-18.1,1.6-4.9-1.1-8.6-4.6-9.7-3.5-1.1-2.2-6.5-2.2-10.5s-.5-12.7-2.7-12.7-4.6-3-5.1-8.9c-.5-5.9-7-12.1-7-12.1l2-35.6-.8-19.1-3.1-1.4Z" fill="#999" stroke="#fff" stroke-miterlimit="10" stroke-width="2"/><path d="m145.1,551.6l101.2,10.1-2.4,82.2s1.1.3,2.5.7c1.9.5,4.8,1.1,7.6,1.3,2.5.1,6.2.5,9.7,1.5,1.7,0,3.3.8,4.7,1.8,1.7.9,3.1,1.9,4,3.2,3.1,4.7,4,7.4,9.4,9.5,2.2.4,4.4,1.6,5.8,2.5,1.4.8,1.8,1.2,1.8,1.2,0,0,.1,0,.3,0,.8,0,1.8,0,2.8.1,3.2.3,8.1,1.4,10.7,5,.1.2.2.3.3.5,0,0,.2.2.3.3.4.5.7.8,1,1.1.2.2.4.2.5.2-.3-.9-.5-2.5.3-4.3,0-.4,0-.6,0-.8.3-1.1,5.7-5.9,8.1-1.4.1.2.2.4.3.6,1.1,1.6,2,3.8,2.7,5.6,2.1,4.2,4.7,8.3,8,8.3,2.4-.1,4.8-1.8,7-2.6,1.1-.5,2.1-.7,3.4-.3,2.4.4,4.8,1.9,7.2,1.9s1.3-.2,1.6-.5c.2-.2.3-.4.4-.7.8-2.4,4.3-3.2,5.1-.3.5,1.7,1.8,2.6,2.8,2.5.7-.4,1.3-1.2,1.5-1.9,0-.2,0-.4,0-.6-.3-1.6.7-4.7,1.9-5.5.2-.1.3-.2.5-.2.8-.5,1.8-.4,2.7.6,1.9,1.9,5.4,2.7,7.8,3.1.3,0,.6,0,.9,0s.7,0,1,.2c0,0,.2,0,.2,0,1.4,0,3.5,2.2,3.8,4,.6,1.8,2,3.6,4,3.7,1.2-.3,2.6-1.1,4.1-2,1.8-1.1,3.8-2.4,5.3-2.5,2.8-.2,11.2,0,11.2,0l5-.8s.7,0,2,0c0,0,0,0,0,0,3-.2,6.8-.4,9.3-.6.9-.1,1.6-.2,2.4-.2.1,0,.2,0,.2,0,0,0,3-1.1,7,2.7.1.1.3.3.4.4,1.7,1.2,3.8,2.9,6.6,5.2,0,0,0,0,0,0,3.3,2.3,6.7,4.1,8.6,3.6.9-.6,1.2-1.7,1.3-2.5h0s-5.6-121.7-5.6-121.7l-.4-22.7-253.4-10.2-.2,1.7c-7.6-.6-16-1.4-24.9-2.4l-9.1-.9-1.6,19.9Z" fill="#999" stroke="#fff" stroke-miterlimit="10" stroke-width="2"/><path d="m608.2,589c0-1.2-.4-2.7-1-4.3-.7-1.4-1.3-2.9-.9-5.4.2-1.6.7-2.7.7-2.7,0,0-11.3,1.3-14.6,1.3-3.6.4-3.9-5.2-2.2-7.3,1.1-2.2.8-3.2-.5-4.9-1.5-.8-1.5-4.1-1.5-4.1l-153.5,4.5c2.7,27.2,4.1,56.1,4.9,78.9.8,17.9,1.3,34,.8,42.2,0,.3,0,.5,0,.7l5.7,2.8-5.2-2.7,5.2,2.7,6.9,3.4v-.8s.4,1,.4,1l.4,18.9,109.3-.8c-3-4.9,4-13.1,4.2-13.8,0,0,0-.1,0-.2-.3-.8-2.9-2.5-1.4-5.5,0,0,0-.1,0-.2,0-.2.1-.4.2-.6.8-2.7-1.7-4.4-1.7-4.4-.2-.4-.4-.8-.6-1.1-1-1.3-1.8-3.2-1.9-6.1,0-1.2.1-2.5.4-3.8.3-1.7.9-3.4,1.6-4.9,1.9-4.4,4.7-8.4,6.6-10.9,2.4-3.7,4.8-7.3,7-9.8.2-.2.3-.4.5-.5.4-.6.8-1.2,1.1-1.8.3-.9.3-1.9,2.8-6.1.7-1.4,1.7-3.1,2.5-4.6,1.4-3.5-.3-3.6.3-4.5.1-.2.3-.4.7-.7.8-.9,2.1-2.4,2.9-3.3.9-1.2,2.9-2.2,3.2-4.2,0,0,0,0,0,0,0,0,0-.2,0-.3,0-.2,0-.4,0-.7,0-1.2.2-1.8.6-2,.3-.6.6-.9.6-.9,0,0,1.4-2.7,2-6.2,0-1.5.3-3,.8-4.4.5-2.5,1.4-4.7,3.6-6.1,3.2-2,4.5-7,4.5-7l1.6-1.6-1.1-4.3s3.2-.6,3.9-2.7Z" fill="#bd141b" stroke="#fff" stroke-miterlimit="10" stroke-width="2"/><path d="m623.7,541c.1-.1.3-.3.4-.5.6-1.1.2-3.4,1.4-6.5.4-1.1,1.2-1.8,2.1-2.2.9-.8,2.3-1.1,4.4-.6,5.5,1.3,6.7,4.1,9.7,2.3,1.5-1.4,2.5-4.2,3.6-6.2,1.7-3.1,3.8-2.9,6.1-2.9.7-.1,1.3-.4,1.8-.8,1.5-1.4,2.6-4.5,2.3-10,0,0-1-6.5,2.1-8,.2-.1.3-.1.3-.1,0,0-.3-3.5-.3-6.5s.3-3.1.7-4.5c.1-.8.2-1.6.4-2.2,0-.3.2-.6.2-.8,0-.2,0-.4,0-.6,0-.8.5-1.5,1-2.4.4-1.1.8-2.1,1.1-3.5,0-.3,0-.5,0-.8,0-3.8,3-6.2,3.5-7.6.4-1,2.2-3.9,4-8.2.1-.4.3-.7.4-1.1,1.9-5.6,2-10.3,1.5-13.9-.9-4.1-2.4-7.2-2.4-7.2v-.5c0-.1-.1-.2-.1-.2l-7.4-110.3s-1.3-.4-2.4-3.3c-1.1-2.8-5.9-11.3-9-17-3.1-5.6-2.6-7.8-2.6-7.9t0,0h-.4c0,.1-81.7,2.6-89,3l11.2,8s1.4,4.3,2.6,7.2l2.7,4.7c.2.3.5.5.8.7l2.4.8s3,3.2,2.2,8.1c0,.5-.3,1-.5,1.5,0,0,0,.1,0,.2-.7,3.2-4.4,6.1-7.9,8.4-1.6,1.2-3,2.2-3.5,2.5-1.8.9-4.9,2-4.9,3.2s-.3,3.3-4.5,4.6c-.4.3-.8.5-1.2.6-.2,0-.3.1-.4.2-.9.6-1.5,1.4-2.1,2.2-.9,1.9-1.4,4.8-1.6,8.4,0,2.5,0,5.7-.3,7.4-.3,1.7-1.4,3.2-2.8,4.8-1.1,1.4-2.4,2.8-3.9,4.4-.2.2-.3.4-.5.6-3.2,4.1-4.6,17-4.6,17h-.9s2.4,8.1,3,12.1c.5,4-3.8,10.3-.5,13,3.2,2.7,5.7,5.7,7.8,6.5,2.2.8,8.1,3.5,8.1,3.5,0,0,0,4.9,3.5,6.5,3.5,1.6,4.9,5.1,5.1,8.4.3,3.2,3.8,5.4,7.6,4.9,3.8-.5,8.9.8,10.8,9.4,1.9,8.6-3.5,12.7-3.5,12.7,0,0-4,.8.3,5.4,4.3,4.6,14,15.4,14,15.4,0,0,2.7,3,5.1,3s5.1,3.8,6.5,7.8c1.3,4,.3,11.3,2.2,15.4,1.9,4,10,10.3,12.7,11.9.8.1,1.3,0,1.6-.2Z" fill="#bd141b" stroke="#fff" stroke-miterlimit="10" stroke-width="2"/><path d="m1075.9,490.7s.8,2.8-.8,3.9c-1.6,1.1-3,.2-4.2-.9-1.2-1.1-3.9-1.7-5.9.3-2,1.9-6.3,3.6-10.3.5-4-3.1-10.2-13.4-30.4-11.4,0,0,10-6.8,20.4-2.4,10.4,4.4,11,11,17,10.1,0,0,1.7-7.4-8.3-12.5,0,0,7-4.2-3.8-6.9-10.8-2.7-10.2-3.7-10.2-5.9,0,0,6.8-2.4,11.3-.5,0,0,3.1,1.1,4.6,0,0,0-.9-3.4-5.5-3.4,0,0,4.2-2.6-.2-11.4-5.8-6-13.4-4.2-18.2-7.5-4.9-3.2-5.4-3.5-8.9-3.2-3.5.3-5.4.3-8.1-5.4-2.7-5.7,3.8-8.1,4.3-12.1.5-4-6.2-10-8.9-10s-8.4-1.6-11.1-7c-2.7-5.4-7-4.3-8.9-4.3,0,0-4.3,3.5-6.2,7.3-1.9,3.8-2.7,4.3-7.3,4.9-4.6.5-7,3.8-7.3,6.2-.3,2.4-2.2,9.2-5.7,10.3-3.5,1.1-7.6,6.2-7.6,10.5s-8.6,8.9-13.5,6.2c-4.9-2.7-10.5-3.5-8.4,3.2,2.2,6.8-1.6,11.1-7.6,11.1s-12.7,7-13.5,14.3c-.8,7.3-1.1,11.3-7.3,11.3s-8.6.5-8.6.5c0,0-3.2,2.2-3,4.6,0,0-6.5,1.3-9.4-4.1,0,0-6.5,5.9-8.4,12.1-1.9,6.2-8.9-.5-11.1-3-2.2-2.4-5.1-8.6-9.4-8.6,0,0,0,.2,0,.6,0,3-.4,9.9-3.8,12.5-4.5,3.3-13.9,8.4-15.7,13.6-.2.6-.4,1.2-.6,1.7,0,.2,0,.3-.1.5-.5,3.4-2,4.5-3.4,4.7-.9.3-1.9.2-3.1-.7,0,0,.1,5.5-3,6.8-2.3,1.2-11.1,7.3-14.5,12-.6.9-1,1.8-1.1,2.6l72.3-6.8,1.6-.2s0,0,0,0c0,0,0,0,0,0l194.6-30.3.7-9.3s-1.5-3.1-3.6-4.4Z" fill="#bd141b" stroke="#fff" stroke-miterlimit="10" stroke-width="2"/><path d="m810.2,541.4c.2-.7.6-1.5,1.2-2.3,3.1-4.8,11.9-11,14.5-12,2.7-1.4,3-6.8,3-6.8,0,0,1.5.9,3.1.7,1.5-.6,2.5-2.6,3.5-5.2,1.5-7,11.6-12.5,15.5-14.9,3.5-2.1,4.4-10.6,4.5-12.9,0-.4,0-.8,0-1-.2-1-.8-3.4-3.2-3.4s-2.4-.5-2.7-3.2c-.3-2.7-2.7-2.2-2.7-2.2,0,0-2.2-5.7-2.2-10.5s2.1-8,2.4-8.5c-2.5.3-6.8.2-11-3.1-6.2-4.9-9.7-9.4-12.4-8.4-2.7,1.1-3,3.2-5.9,3.2s-5.7-1.6-9.4-1.6-5.9,3-8.6.5c-2.7-2.4-4.9-4.9-9.7-4.9s-15.9-.8-18.1-3c-2.1-2.1-7.1-6.1-11.9-3.1.2.6.4,1.9.6,3.4,0,0,0,0,0,0,0,0,0,0,0,.1,0,.2,0,.5,0,.7,0,.2,0,.5,0,.7,0,1.8-.2,3.6-1.1,4.7-2.3,3-4.9,5.8-8.8,6.9-1.9.5-4.1,1.6-5.9,2.9-2.2,2-3.6,4.8-3,8,.3,1.4.2,2.7-.1,4-.1,1.4-.4,2.7-1.1,3.6-.3.5-.8,1.1-1.4,1.9-.5.8-1,1.5-1.5,2.3-2,2.9-7.6,10.4-11.9,11.9-.5.2-1,.3-1.5.2-.4,0-.8,0-1.2-.3-2.7-1.3-4.8-4.6-6.5-6.8-1.3-1.2-2.5-2.1-3.3-2.3-.5.2-.9.7-1.2,1.4-.4,3.8-1.4,12.6-4,13.3-.1,0-.3,0-.4,0-.5.5-1.1.8-1.8.8-2.8,0-4.2-2.1-6-2.4-2.2.7-2.6,3.9-5.4,4.3-.2,0-.4,0-.6,0-.5.1-1,.2-1.6.2-4.3,0-9.8-2.9-12.3-3.2-3.8.8-6.4,5.2-8.7,4.5-.7,0-1.5-.6-2.1-1.2-1.1-.6-1.7-.9-2.5-.1-1.4,2.4-1.4,6.5-6.6,6.6-.7.1-1.4,0-2.3-.1-.1,0-.2,0-.3.1-.7.4-2.4,2-2.1,8,0,0,.7,7.4-2.3,10-.6.5-1.2.8-1.8.8h0c-.2,0-.3,0-.5,0-5.7,0-5.7,6.7-8.9,8.9,0,0-.2.1-.3.2-.9.8-2,1.2-3.4.5-2.8-1.4-7.8-3.5-10.8-2.2-1.5,1.3-1.7,3.7-2.1,5.6-.3,1.4-.9,2.4-1.4,3.1-.1.2-.3.3-.4.5-.5.5-.8.7-.8.7,0,0,.4-.2.8-.7-.3.2-.8.3-1.6.2,2.7,1.6,4.9,13.5-3.8,15.1l-4.6-.3s-3.5-.8-3.5,3.5.1,3.3.2,3.1c0-.1,0-.2,0-.2l48.6-4.1-4.5-5.3,154.7-11.3h1.1c0-.9.5-1.7,1.1-2.7-.6.8-1,1.6-1.2,2.3Z" fill="#bd141b" stroke="#fff" stroke-miterlimit="10" stroke-width="2"/><path d="m378.8,311.1c-4.7-3.8-2.9-2.7-.2-17.5.5-4.2,1.6-14.2-2.9-20.5-2.6-3.2-5.7-3.9-5.7-3.9l8.4-.3,1-78.3s-3.4-4.3-2.8-9.7c.6-5.5,3-14.6.8-18,0,0-151.3-2.4-221.9-12.9-2.7,21.9-4.8,38.3-4.9,39.5,0,1.4-.5,2.1-.9,2.5l-9.7,84.1,132.1,9.7s5,3.5,8,3.5,4.4,1.1,7.2,3c2.8,1.9,8.8,3.4,12.5,3.4s7.1,2.9,10,2.9,8.6,2.9,11.4,5.2c2.8,2.2,8.3,1.3,15.5-2.4,7.2-3.7,10.7-.4,13.9,0,3.1.4,8.9.7,8.9.7,0,0,18.8,8.8,19.7,9.6.9.8.7,7.3.7,7.3,0,0,1.8-5.6-1.2-8Z" fill="#999" stroke="#fff" stroke-miterlimit="10" stroke-width="2"/><path d="m668.2,445.7c.4.7,1.8,3.4,2.4,7.6.6,3,1,6.5,0,9.6-.6,2-1.3,3.9-2,5.5-4.3,11.8-6.3,9.7-7.1,14.4-.1.9-.3,1.6-.5,2.3-.1,1.5-.6,2.7-1.1,3.5-.3.9-.7,1.8-1,3-.1.8-.4,1.8-.6,3-.6,4.5-.4,11-.4,11,.9.1,1.6.2,2.3.1,3.8-.6,5.6-5.7,6.6-6.6.8-1.3,1.6-.6,2.5.1.5.3,1.1.7,1.8,1.1.1,0,.2,0,.3.1.3,0,.7-.1,1-.5,2.2-2.2,5.1-4.1,7.3-4.1s.3,0,.4,0c0,0,0,0,0,0,3.7-.8,10.5,2.9,13.7,3,3.1-.8,3.3-4.2,5.2-4.4.3,0,.5,0,.8,0,.1,0,.2-.1.3-.1,2.4-.4,4.9,2.1,7.5,1.7,1.8-1.7,2.4-5.5,3-6.8.6-1.1.6-4.6,1.4-6.6,0,0,0-.1,0-.2.1-1,.5-1.4,1.2-1.3.1,0,.2,0,.4,0,.9,0,1.9,1,2.9,2.3,1.4,1.3,2.9,3.1,4.4,4.7,1.4,1.5,2.4,2.2,3.3,2.4.5,0,1,0,1.5-.2,1-.5,1.9-1.5,3.1-2.4,2.4-1.7,7.6-8.1,10.3-11.8,1.1-1.7,2-3.6,2.4-5.6.2-2.3-.1-5-.1-7.2,0-1.8,1.4-3.5,3.2-4.9.9-.8,2-1.5,3.2-2,4.1-1.6,8.1-3.8,11.1-7.8,1.1-1.5,1.5-3.2,1.5-4.8,0-.2,0-.5,0-.7,0-.2,0-.5,0-.7,0,0,0,0,0-.1,0,0,0,0,0,0-.2-1.9-.8-3.3-.8-3.3l-12.1-108.5-.8-2.4-67.5,4c-.7.8-2,2.4-3.8,3.7-.6.4-1.2.8-1.8,1.1,0,0,0,0-.1,0-.1,0-.2.1-.3.2-1.8.8-3.9,1.3-6.2,1-1.8-.1-3.5-.7-5.2-2.1-.4-.3-.8-.6-1.2-.9l7.5,110.5Z" fill="#bd141b" stroke="#fff" stroke-miterlimit="10" stroke-width="2"/><path d="m1097,420.1c-1.3,1.4-3.7,1-4-.2-.4-1.2.7-2.1,1.7-2.1s2.3-1.9.7-3.2c-1.6-1.3.2-1.7,1.1-1.7s3.8-2.7-.6-3.6c-4.4-.9-7.4-2.6-8.4-4.5-1-1.9-1.7-4.1-3.4-5.1-1.8-1-2.3-3.5-2.4-5.3-.2-1.8-1.6-6.2-4.5-7.8-2.8-1.6-5.7-4.4-5.7-5.2s1.8-5.1-2.5-5.8c0,0,.2-1,.7-1.6-.3-.3-1.3-1.3-4.3-4.4-3.3-3.4-2-4.7-.9-7.3l-4.9,7.8h.6c0,0,3.6-6.5,3.6-6.5l-3.6,6.4h.4c0,0,17,58.5,17,58.5l22.8-3.6c-.1-.4.8-1.2.8-3s-2.9-3-4.2-1.6Z" fill="#bd141b" stroke="#fff" stroke-miterlimit="10" stroke-width="2"/><path d="m1064.8,361.1c.4-1.1,1.1-2,2.2-2.6.9-.9,2.7-2.2,5.2-2.2s0,0,0,0c.8-.2,1.6-.5,2.4-.7,2-1.2,3.2-3.9,3.1-7,0-1.3-.4-2.7-.9-4,0,0,0-.2,0-.2-.1-.3-.2-.5-.3-.8-1.5-2.9-4.1-5.1-7.5-6.7-2.5-1.2-4-3.9-5-7.1-3.4-8.4-3.1-20.6,1.2-23.7.9-1,1.8-1.8,2.6-2.8,1.2-2,1.3-4,1.1-5.6-.1-.4-.3-.9-.5-1.4.2.5.4.9.5,1.4,0-.7-.2-1.3-.4-1.8-.7-.3-1.1-.5-1.3-.7-1.3-1.6-5.9-1.3-8.9-4.3-3-3-5.7-9.7-11.3-14.6-5.7-4.9-12.1-2.7-12.1-2.7l-129.6,25.6-1.8-9s-4,2.7-5.7,4.6c-1.7,1.8-2.9,3.6-5.1,4.1-2.2.5-6,4.3-7,4.7-1,.4-3.1.5-3.1.5l13,92.3,164-26.6,4.9-7.8c.1-.3.3-.7.4-1.1Z" fill="#bd141b" stroke="#fff" stroke-miterlimit="10" stroke-width="2"/><path d="m1067.7,303.3c-.6,1-1.4,1.9-2.6,2.8-2.4,2.7-2.7,9.5-2.4,15.4.1,2.7.5,5.7,1.2,8.3,1.4,3.5,3.5,6.4,6.2,7.5,3.1,1.3,5,3.7,6.2,6.2.1.3.2.5.3.8,0,0,0,.2,0,.2.3.8.6,1.6.7,2.5,0,.5.1,1,.1,1.5.2,3.4-.8,6.3-2.6,6.9-.2,0-.3.1-.5.2-.7.4-1.5.7-2.4.7-1.9.6-3.8,1.2-5.3,2.2-.5.4-.7.8-.7.8l-1.8,2.9c-1.1,2.7-2.4,3.9.9,7.3,3,3.1,4.1,4.2,4.3,4.4.2-.3.5-.4.8-.4,1.2.2,3,0,3.8,1.1.9,1.1,2.4,2.6,3.8,1.5,1.5-1.1,6.1-.4,6.1-.4,0,0,1.7.2.9,2.5-.8,2.3-1.2,6.4.7,6.2,1.9-.2,2.7-7.3,2.8-7.5,0-.3,2.6-3.1,2.5-5.1-.1-1.9-1.3-2.9-1.3-2.9,0,0,2.7.7,3.4-1.1.7-1.8,2.1-6.5,2.1-6.5,0,0,0-1.4-1.1-1.7-1.2-.3-1.8-1.4,1-1.7,2.7-.3,4.1-3.6,4.2-6.2.2-2.6-2.1-7.2-1.9-9.6.2-2.3,2.5-2.1,2.6-5.2,0-3.1-.1-9-.1-9,0,0,.3-3.8-2.5-3.8s-4,2.1-5.6,2.2c-1.6,0-3.1-1.4-3.6-1.4s1.3-1.8,1.5-4.6c.2-2.7,2.2-3.8,2.3-5.3.1-1.5,3.2-6.6,3.5-7.9l.7-3.5s-22-5.4-27.6-7.7c.1.5.3,1.1.4,1.8.8,2.5,0,4.1-1.1,5.6Zm1.7,70.3s.5-.5-3.5-3.8c-4-3.2-1.9-5.9-1.9-5.9,0,0-2.2,2.7,1.9,5.9,4,3.2,3.5,3.8,3.5,3.8Z" fill="#bd141b" stroke="#fff" stroke-miterlimit="10" stroke-width="2"/><path d="m1170.4,249.9l-2.2-5.4-2.4-4.6-12.3,5.1c.9,2.5,8.2,23.8,6.7,24.3-1.6.5,0,4.6,0,4.6,0,0,1.9-.5,2.7-1.3.8-.9,5.6-2.6,6.5-3.8,1-1.2,2.5-1.5,2.4-3.9-.1-2.3-1.6-4.5-1.6-7.1s3.4-3.8,3.6-1.4c.3,2.4.8,7.4,2.3,7,1.6-.5,1.6-3.3,1.6-3.3,0,0,3.6,0,3.7-.8l-4.7-8.6-6.2-.8Z" fill="#999" stroke="#fff" stroke-miterlimit="10" stroke-width="2"/><path d="m1217.2,245.3c-.9-3-2.1-5.4-2.9-8.3-.8-2.8-1.5-5.1-3.9-7.1-2.4-2-5.4-4.7-7.5-3.6-2.2,1.1-1.3,4.1.9,3.6,2.2-.5,4.2.2,4.4,1.4.2,1.2.7,2,.7,2,0,0,2.2,1,2.6,3.1.4,2.1.7,4-1,4.4-1.7.3-2.7,0-3.7,1.3-1.1,1.3-1.5,2.4-4.4,2.4s-5.9-1.4-7-3.8c-1.1-2.4-1.5-4-3.9-3.4-2.4.7-2.9-2.6-1.8-3.2,1.2-.6,1.3-1.2.2-2.4-1.1-1.2-2.8-1.9-3.6-2.6-.8-.7-.2-1.7-1.8-2.7-1.6-1-5.6-.8-5.6-.8,0,0,.2,1.7-1.1,1.9-1.3.2-5.8-2.3-5-4,.8-1.7,1.4-3.2,1.2-4.3-.2-1.1,3.6-1.9,3.4-3.3-.3-1.4-1-1.6-.7-2.6.3-1,4-2.3,3.7-3.7-.3-1.4-2.9-1.9-4-2.7-1.1-.9-2-4.5-3.5-5.5,0,0,.1-.2.3-.5l-5.1-.6-.8.8-2.3,2.6h-.8c0,.1-2.6.8-2.6.8l-1.5,4.3-64,13.8s1.1,1.9,1.1,9.7.5,24.6.5,24.6l21.3-5.1c0,.4.2.6.3.8.5.3,1.1.5,1.7,0,.4-.6.7-1.4.7-1.4l31.6-6.5,12.4-4.9,2.4,4.6,2.2,5.4,6.2.8,4.7,8.6s1.2.9,2.9.2c1.7-.7,2-2.2,2-3.2s1-2.2,1.8-2.5c.8-.3,2-2.8,2-2.8,0,0,1.2-4.4,2.8-4.4s1.6,1.3,1.6,2.8.5,5.3,2.6,4.5c2.1-.8,4.6-2.9,6.6-4.9,2.1-2,3.4-1.8,4.3-2.6.9-.8,5.5-3.8,6.2-1.2.8,2.6,3.9,3,3,0Z" fill="#999" stroke="#fff" stroke-miterlimit="10" stroke-width="2"/><path d="m1160.1,269.4c1.5-.5-5.8-21.8-6.7-24.3h-.1c0,0-31.5,6.2-31.5,6.2-.2.7-.4,1.1-.7,1.4-.5.7-1.1,1.2-1.7,0-.4-.3-.7-.6-.7-.6l-20.9,4.9s1.4,5.9,1.4,10.5,1.7,8.7,2.8,13.5c1.6,5.2,3.4,11.3,3.4,11.3l-3.8,5.9,2.4,3.2-2.4-3.2,2.3,4.4c0,0,0-.2,0-.2,0,0,1.4-.3,3.1-.5,1.8-.2,3.6-2,4.3-3.4.7-1.4,3.5-2.7,3.7-2.7s2.7-2.1,2.7-2.1h2.2c.2,0,1.1-1.6,2.6-2.9,1.5-1.3,1.6-3.1,2.1-4.2.5-1.1,1.4-1.1,1.8-.6.4.5,1.2.6,2.9-.3,1.7-.9,4.7-1.5,4.9-1.6.2-.1,3.3-.4,3.5-.5.2,0,2.5-1.3,2.5-1.3l2.4-.2,1-2.2,2.7.7,2.7-2.4,2.2-.5,3.4-.7s2.4-1.9,2.5-1.9,3-1.3,3-1.3c0,0-1.5-4,0-4.6Z" fill="#999" stroke="#fff" stroke-miterlimit="10" stroke-width="2"/><path d="m987.7,398.5c-1.3-2.2-1.7-5.5-2.3-7-2.3-2.9-9.1-2.3-11-.6-2.2,1.9-7.3.8-13.8,1.1-3,.1-7.7,4.3-11.8,9.2-3.8,4.6-7.4,10-8.7,12.8-.2.4-.2.7-.3,1-.3,3.5-5.4,4.1-5.4,4.1l-3.7-28.1-35.2,5.7-1-7.3c-.6.2-1.1.3-1.5.5-.8.4-1.9,1-2.9,1.9-1.6,1.7-2.2,4-2.8,6.9-.5,3.3-2.2,3.1-3.1,3.6-.2.1-.4.3-.6.5-.4.6-.8,1.5-1.1,3.1,0,.5-.2,1-.3,1.4,0,.2-.1.3-.2.5,0,.1,0,.2-.1.4,0,0,0,0,0,.1-.5,1.2-1.3,2.2-2.1,3-.7.8-1.4,1.6-2,2.3-1.4,1.5-3.4,2.7-4.3,3.6-.1.2-.3.3-.4.5-.1.2-.2.3-.1.5.1.6-1.8.6-3.7,1.1-4.8,1.5-2.5,5.6-2.9,8.3-.3,2.3.2,5.2-1.9,5.8-.4.3-.9.4-1.5.2,0,0-.2,0-.3-.1-.2,0-.4,0-.7-.1-4.9-1.1-7.9.6-7.2,6.3.3,2.6,0,3.8-.7,4.8-.3.6-.6,1-1.2,1.3-.1,0-.3.2-.4.2-.5.4-1,.8-1.7,1.4-2.1,2.3-3.7,6.5-1.7,11.6l-2.2.8c-.6,1.2-2.1,4.3-2.1,8.1s2.2,10.5,2.2,10.5c0,0,2.4-.5,2.7,2.2.3,2.7-.3,3.2,2.7,3.2s3.2,3.8,3.2,3.8c4.3,0,7.3,6.2,9.4,8.6,2.2,2.4,9.2,9.2,11.1,3,1.9-6.2,8.4-12.1,8.4-12.1,3,5.4,9.4,4.1,9.4,4.1-.3-2.4,3-4.6,3-4.6,0,0,2.4-.5,8.6-.5s6.5-4.1,7.3-11.3c.8-7.3,7.6-14.3,13.5-14.3s9.7-4.3,7.6-11.1c-2.2-6.7,3.5-5.9,8.4-3.2,4.9,2.7,13.5-1.9,13.5-6.2s4.1-9.5,7.6-10.5c3.5-1.1,5.4-7.8,5.7-10.3.3-2.4,2.7-5.7,7.3-6.2,4.6-.5,5.4-1.1,7.3-4.9,1.9-3.8,6.2-7.3,6.2-7.3-.9,0-1.5-.8-2.1-2.1Z" fill="#bd141b" stroke="#fff" stroke-miterlimit="10" stroke-width="2"/><path d="m849.7,448.4c.4-.4.8-.8,1.1-1.1.5-.6,1.1-1.1,1.7-1.4.7-.5,1.2-1,1.6-1.5,1-2.2.2-6.1.2-8.4s4.8-3.7,8.3-2.5c.8.1,1.4,0,1.8,0,1.9-1.5,1.7-8.1,1.5-11.2-.1-1.8,1.5-2.6,3.3-3,.4-.1.9-.3,1.5-.4,0,0,1.1.2,2.4-1.2,0-.2.2-.3.4-.5.2-.2.3-.4.5-.7,1-1.7,3.7-3,5.9-5.2.8-1,1.6-2.1,2.1-3,0,0,0,0,0-.1,0-.1,0-.2.1-.4,0-.2.1-.3.2-.5,0-.2.1-.4.1-.6,0-1.5.5-3.1,1.3-3.9,1.2-1.6,3-.5,3.7-4h0c0-.5.1-1.1.1-1.8,0-2.2,1.3-3.9,2.7-5.1.7-.7,1.7-1.4,2.9-1.9.7-.4,1.2-.5,1.2-.5,0,0-.5.2-1.2.5.5-.2,1-.4,1.5-.5l-12-85s-2.8-1.1-5-1c-2.2.1-6.1.8-8.9,3.8-2.8,3-4.5,6.7-7.6,7.5-3.2.9-6,1.7-9,4.5-2.9,2.8-6.8,5.2-9.1,3.3-2.3-1.9-5.7-2.2-7.6.2-2,2.3-3.5,3.7-6.1,3.7s-3.7,1.3-5.1,3.6c-1.4,2.3-5.3,5.3-9,5.6-3.6.3-6.4-.8-6.4-1.8,0-1,5-2,6.3-2.4,1.3-.5,2.1-1.1,2.1-1.9,0-.8-3.3-1.7-7.4-1.2-4.1.5-8.5.4-8.5-1.8l-53.6,4.3,12.1,108.5c4.9-3.2,10,.8,12.2,3,2.2,2.2,13.2,3,18.1,3s7,2.4,9.7,4.9c2.7,2.4,4.9-.5,8.6-.5s6.5,1.6,9.4,1.6,3.2-2.2,5.9-3.2c2.7-1.1,6.2,3.5,12.4,8.4,4.2,3.3,8.6,3.4,11,3.1,0,0,0-.1,0-.1,0,0,0,0,0,.1,1.2-.1,2-.4,2-.4,0,0-2.9-6.5.6-10.4Z" fill="#bd141b" stroke="#fff" stroke-miterlimit="10" stroke-width="2"/><path d="m1101,426.3c-.2-1-.6-1.1-.7-1.5l-22.8,3.6-17-58.6-1,.2h0c0,.1,0,0,0,0l-128.7,20.9,3.7,28.1-3.2-27.8,3.2,27.8s5-1.1,5.1-3.5c0-.3.2-.9.5-1.6,1-2.6,4.6-8,8.7-12.8,1.6-1.9,3.2-3.7,4.7-5.2,5.9-5.8,7.4-4.5,10-4.4,2.5.1,8.8.4,11.7-1.5,2.8-2,9.4-.7,10.3,1.4,0,0,0,0,0,0,.3.4.5.8.6,1.3.6,2.3,1.1,4.3,1.7,5.7.5.9,1.2,1.7,2.1,2.1,1.9,0,6.2-1.1,8.9,4.3,2.7,5.4,8.4,7,11.1,7s9.5,5.9,8.9,10c-.5,4.1-7,6.5-4.3,12.1,2.7,5.7,4.6,5.7,8.1,5.4,3.5-.3,4,0,8.9,3.2,4.9,3.2,12.5,1.5,18.2,7.5l3.6-3.6.9.5v3.4s1.6,1,2.3,1.9c.7,1,3.1.4,2.1-2-1.1-2.4-4.2-4.6-4.2-4.6l-.3-2s1-1.5-1.5-2c-2.5-.5-8-2.6-11-6.9,0,0,2.5-2.3,5.2-.1,2.7,2.2,4.5,4.9,6.1,3.9,1.7-1-3.7-5.6-5.1-6.4-1.3-.9-2.2-5.3-2.5-7.4-.3-2.2-.9-3.2-1.1-4.3-.2-1,1.7-2.1,1.6-3.3-.1-1.2-2.7-.9-2.7-2.3s2.5-1.8,2.8-2.9c.3-1.1-.4-1.2-.4-1.9,0-.7,2.2-.5,2.2-1.9,0-1.4-4.7-1.3-4.7-2.2s1.8-2.5,1.8-2.5l-5.4-4.9s-1.5-3.2,1.7-1.4c3.2,1.8,4.5.8,2.8-.8-1.7-1.6-1.1-1.2-1.1-1.2h1.4c0-.1.3-2.5.3-2.5h1.5l.2-2.4s2-.6,2,.7,1.5,1.4,1.6-.1c0-1.5.4-2.2.4-2.2,0,0,3.1-.9,3.3-2.2.3-1.3.2-2.1.2-2.1,0,0-1.3-2.9.9-4.5,2.2-1.6,5.1-1.8,4.1.8,0,0,2.9-1,3.4.5.5,1.5-2.6,3.8-2.6,3.8l.6,2.6s.1,1.8-2.8,1.8-3.7.8-5,4.8c-1.3,4-1.6,8.2.6,8.2s4.1-2.2,3.5.8c-.5,2.9-.3,5.1-.3,5.1,0,0-2.4.7-.7,3.5,1.8,2.9,3.6,6.3.7,4.7-3-1.6-4.3-.6-4.2,1.4.1,2,2,2.8,3.4,2.8s2.2,1.9,3.9-.1c0,0,1,2.8,3,4,2.1,1.2.1,2.8-1.8,1.8-1.9-1.1-5.2-2-5.2-.3s1.1,3.6,2.9,2.6c0,0-2.2,2.3-2.5,4.1-.3,1.8.6,3.1,2.9,4.2,2.4,1.1,6,2.6,6.8,4.4l.8-3.6s1.9-1.9,2.3-.6c0,0,1.8-1.2,2.5-.7.7.5,0,2,.6,2.8.6.8,3.3,1.1,1.6,2.6-1.7,1.5-2.1,2.4-2.1,2.4h4.8c0,.1,1.8.9,0,2-1.8,1.1-2.6,2.2-.8,2.2s3.5.8,1.9,2c-1.6,1.3-3,2.8-2.1,4,1,1.2,1.3,1.4,4.9-.8,3.6-2.2,7.7-4,9.4-4.5,1.7-.5,4.6-2.5,5.3-6.3.7-3.8,3.6-8.3,3-4.3-.6,4-.2,7.3-.2,7.3l2.2-1.1,1-13.1s-1-1.4-1.1-2.5c0-1.1,1.8-1.9,1.6-2.8Z" fill="#bd141b" stroke="#fff" stroke-miterlimit="10" stroke-width="2"/><path d="m562.7,69.1c-13.5.3-19.2,7-38.6,3.8,0,0-.5,2.2-4.9,0-4.5-2.2-11.9-7.1-14.2-4.4-2.2,2.6-4,.8-4.9-.4-.8-1.2-3.2-1.8-5.9-1.4-2.6.4-3.6-1-1-3,2.6-2,2.4-4.7-1-8.1-3.4-3.4-4.5-1.8-3.4,1.2,0,0-4,1.2-4.9,2.2-.8,1-2.8,0-2.8,0,0,0-9.3-5.3-21.5-5.3,0,0-5.7-3.6-10.5-3.4-4.9.2-10.1.8-13.8-2.2-3.6-3-5.1-4.3-5.7-4.7-.6-.4-3.4-.8-3.4-.8,0,0-1.2-4-3-4.2l-1.6,3s-3-2-5.9-6.5l-54.3,1s-27.2-1.1-62.7-3.1c31.4,2.2,58.1,3.9,64.9,3.5,0,0-.4,4.2-2.3,7.4-.4.9-1,1.7-1.5,2.3-.1.1-.2.2-.3.4-.8,1.4-.2,2,.7,2.6.6.3,1.2.6,1.4.9.2.3.2.8.1,1.4,0,.4,0,.9-.2,1.3-.2,1.4-.4,2.9-.2,3.7,0,.2.2.3.3.5,1,.9,3.4,3.4,3.6,6,0,.8,0,1.6-.3,2.5,0,.4-.1.9-.2,1.3-.5,1.8-.4,2.5-.2,3,.6.4,1.4.6,1.6,1.9.2.5.2,1,.2,1.3,0,.3.2.5.4.7.7.2,2.2,0,2.2,1.2s-.3,4.8-.3,4.8c0,0,.7,1.4,1.5,3.4,1.1,2.6,2.3,6,2.3,8.2,0,3.8,1,19.4,1.6,23.9.3,2,.6,3.8,1,5.6.8,2.8,1.6,5.1,2.1,7.2,0,.1,0,.3.1.4,2,5.5.6,10.7.2,14.2-.2,2.1-.9,6.1-1,10.9,0,3.4.2,6.8.8,9.9,2.2,3.4-.2,12.6-.8,18-.6,5.5,2.8,9.7,2.8,9.7l-1,78.8,161.2.8s0-4.1-1.2-5.3c-1.2-1.2-1-2.4-.6-4.5.4-2,2.2-5.1-3-6.1-5.3-1-3.4-3-3.2-4.7.2-1.6.4-4.1-5.5-6.1-5.9-2-7.9-2.8-8.7-5.7-.8-2.8-4.5-9.9-11.3-9.5-6.9.4-5.9-1.8-7.7-5.1-1.8-3.2-3-4.9-4.7-5.5-1.6-.6-4-4.5-4-8.3s1-8.1,3.4-11.3c2.4-3.2,1.2-8.5-.2-10.1-1.4-1.6,0-10.5-2.8-16.4,0,0,6.7.6,10.5-3.2,3.8-3.9,6.3-6.9,6.3-6.9l1.2-25.5h2.3c0,.1-.8.1.8-3.9,1.6-4.1-.3-9.2,5.9-12.7,6.2-3.5,12.4-5.4,14.3-11.1,1.9-5.7,8.1-10.8,15.1-15.9,7-5.1,8.4-7.8,18.6-11.3,10.3-3.5,14.9-4.1,14.9-7.3,0,0-3.8-5.1-17.3-4.9Z" fill="#999" stroke="#fff" stroke-miterlimit="10" stroke-width="2"/><path d="m378,137.8c.7-3.8.2-6.8-.7-10.4-1-2.8-1.7-5-2.1-7.2,0-.1,0-.2,0-.3-2.3-7.8-2.6-25.5-2.7-29.7,0-2.3-1.1-5.3-2.1-7.7-.8-1.9-1.5-3.4-1.5-3.4,0,0,.4-5.3-.2-5.3s-1.2,0-1.7-.7c-.2,0-.4-.1-.4-.3s0-.3,0-.4c0-.2-.1-.5-.1-.8s0-.3,0-.5c-.1-.3-.3-.7-.6-.9-.4-.3-.7-.6-1-.9-.1,0-.3-.2-.4-.3-.4-.4.3-2.1.8-4,.3-2.7-.8-5.2-2.4-7.2-.4-.5-.7-.9-.9-1.3,0,0,0,0,0,0-.1,0-.2-.3-.3-.4-.5-1-.5-1.3-.5-1.3,0,0,.5-1.1.7-2.4,0-.4.1-.9.2-1.3,0-.7-.1-1.4-.6-1.7-.3-.2-.6-.4-1-.6-1-.5-1.9-1.1-.7-2.6.2-.4.5-.9,1-1.4.3-.4.6-.8.9-1.2,1.6-3.1,2.3-7.4,2.3-7.4-6.8.4-33.5-1.3-64.9-3.5-41.1-2.3-93.4-5.7-126.9-9.9l-16.3,127.2c17.2,2.6,39.3,4.6,62.8,6.3,69.3,4.7,159,6.6,159,6.6-.7-3.4-.9-6.8-.8-9.9,0-5.7.8-11.3,1.4-15.2Z" fill="#999" stroke="#fff" stroke-miterlimit="10" stroke-width="2"/><path d="m1078.8,504.4l-194.6,30.3-5,7.4c-.5,1.4-1.9,3.1-3.5,4.7-2.2,2.3-4.8,3.9-6.2,4.5-1.3.7-2.2,2.2-2.9,3.5-.6,1.4-.9,2.6-.9,2.6l-14.9,9.7s-1.9,3-1.6,4c0,0,0,0-.2,0,0,0,0,.2,0,.2-.3,0-.5,0-.8,0-.9.1-2.2.4-3.7,1-2.6,1.3-5.2,3.6-7.4,6-.7.8-1.5,1.7-2.4,2.7-.9,1-1.7,2-2.3,2.8-3.4,4.5-13.9,11.8-20.9,11.8s-.3,0-.4,0c-2.3.3-4,.8-5.4,1.5-1,.5-1.9,1.2-2.7,1.8-1.6,1.5-2.1,2.8-2.1,2.8,0,0-4.2,1.7-7.3,3.9-1.6,1.3-2.5,2.5-3,3.4-.1.3-.2.7-.2,1,0,0-.2,0-.4.3,0,0,0,.1,0,.1-1.9,1-3.6,3.7-3.6,3.7l-33.2,3.5,85.9-8.9,22.3-13,45-2.4,19.4,11.7,32.8-5.7,45.8,35.5s1.5,1.2,3.1.5c1.6-.7,3.9-2,3.9-2,0,0,.2-.2.2-2.1s2.3-3.9,6-2.2c3.6,1.7,9.1,3.4,5.4-1.9-3.7-5.4-2.8-6.9-2.8-6.9l11.8,10.9s2.1,0,1-2.6c-1.2-2.6-3.9-6-3.2-8.9.7-2.9,3.8-5.4,5-6.5,1.2-1.1,1.8-1.4,1.8-2.3s-1.5-3.5-2-3.7c-.5-.2,3.2-1.7,4.3-3.7,1.1-2,2.3-4,3.1-4.5.8-.5-3.6.9-4.5,1.4-.9.6-1.9-.7-1.8-2.4.2-1.7,5.1-7.2,8.6-8.9,3.5-1.7,9,.4,11-1.6,2-2,5.3-3.5,5.3-3.5,0,0,2.1-1.5,6.2-.5,4.1,1,7.1-1.7,9.2-4.6,2.1-3,4.4-7.6,1.9-9.8-2.5-2.2-5.7-.4-8.4,2.7-2.7,3.1-5.1,4.9-9.4,5.2-4.3.3-9.4-2.9-10.8-6.4,0,0,2.7-.6,7.3,2.9,0,0,2,1.8,3.5,1.5,1.6-.3,2.9-.8,5.4-2.9,2.4-2.2,5.7-4.3,5.4-6.4-.3-2.1-1.9-2.5-3.3-1.2-1.4,1.4-3.3,2.6-6.4,3-3.1.4-6.5-1.4-7.5-2.4-1.1-1-1.7-.3-2.4.4-.7.7-3.3.3-3-1.9.3-2.2,2.4-5.5,5.2-5.5s4.5,2,5.5,2.9c1,.9,2.8,1.1,3.3.4.6-.7,1.3-1.6-.6-3-1.9-1.4-3-5-1.5-5.8,1.5-.8,3.4.5,3.7,2.1.4,1.7,4.9,6.7,7.7,6.7,2.9,0,2.6-.8,2.6-1.9s0-2.4,2.6-2.6c2.6-.2,7-3,5.9-7.5,0,0,.3-1-2.4-.9-2.7,0-8.7,1.6-11-1,0,0,2.3-4.1,9.3-2.1,6.9,2,10.5-3.3,10.1-7.4-.4-4.1-1.8-12.5-6-11.6-4.2.9-2.5,6.8-1.7,8.7.8,1.9,1.1,6.4-1.4,6.4s-4-3.7-2.6-5.9c1.4-2.2.5-7.5-1-7.5s-3.3,3.7-4.5,4.5c-1.2.8-4-1.2-6.2-.8-2.2.4-6,2.1-8.1,4.3-2.1,2.2-5.5,4.1-5.5.1s2.9-6.2,5.9-6.3c3,0,7.3-1,7.6-3.7.3-2.8-3.3-2-3.1-3.4.2-1.4,3.5-3.4,6.8-.8,3.3,2.7,7.7,3.5,9.1.8,1.4-2.7,1.1-7.1-4.7-9.6l.9-3.9s2-2.7,3-.1c1,2.6,4.6,7.4,6.7,9.8,2.1,2.4,4.4,6.9,5.3,9.9.9,2.9,4.7,6.9,5.8,7.7l-15.9-32Z" fill="#bd141b" stroke="#fff" stroke-miterlimit="10" stroke-width="2"/><path d="m789.8,610.3c0-.2.2-.6.6-1.3.4-1.2,1.6-2.4,3-3.4,1.5-1.3,3.7-2.7,6.6-4,0,0,1-1.4,2.8-2.8.7-.6,1.6-1.2,2.7-1.8,1.5-.8,3.4-1.4,5.4-1.5.4,0,.9-.1,1.4-.1,7.4-.4,16.6-8.6,22.2-14.5.7-.9,1.6-1.8,2.4-2.7.6-.7,1.2-1.4,1.6-1.9,1.6-2,3.8-3.3,5.9-4,1.3-.6,2.5-1,3.7-1,.3,0,.6,0,.8-.1,0-.6-.2-3.1,3.4-5.3,4.2-2.6,13.1-8.4,13.1-8.4,0,0,.4-1.3,1.1-2.7.6-1.4,1.5-2.9,2.6-3.3,0,0,.2-.1.3-.1,0,0,.2-.1.3-.2,1.5-.7,3.9-2.4,6-4.4,1.3-1.3,2.4-2.8,3.2-4.5,2.1-4.8,5.2-7.4,5.4-7.5l-1.6.2-73.3,6.9-13.5,1-140.7,10.5,1.8,2.5,2.2,2.5-48.6,4.1s-.4,3.3-1.1,6.7c0,.1,0,.2,0,.3,0,2.8-1.3,5.3-2,6.4,0,0,0,.1-.1.2-.2.2-.3.4-.3.4-.7,2-.8,3.5-.7,4.8.1.8.4,1.7.6,2.5.5,1.3,1.3,2.4,1.5,3.9.2,1.3-.4,2.2-1.1,2.8-.6,1.1-1.6,1.9-2.9,1.3l1.1,4.3-1.6,1.6s.3,4.3-3.5,7c-3.8,2.7-5.4,6.7-5.4,10.8s-.8,4.8-1.3,5.9l65.6,2.8,94-6.5,33.2-3.5c0-1.5,2.6-3.2,3.6-3.8Z" fill="#bd141b" stroke="#fff" stroke-miterlimit="10" stroke-width="2"/><path d="m1091,200.6c-.9-2-1.7-4.3-2.2-7.7,0-.4-.2-.8-.3-1.1,0-.4-.1-.7-.2-1,0-.1,0-.2,0-.3-1.5-4.2-5.1,4.2-5.1,4.2,0,0,.7-4.3.6-8.2-.4-2.3-1-4.8-1.8-6.8-.4-.8-.7-1.6-1.1-2.4-1.7-3.6-1.7-6-1.5-10.2,0-7.1-.7-11.5-3.8-15.3-1.5-1.8-2.3-3.5-2.6-5.1-.4-1.2-.6-2.4-.1-3.6,0-.4.2-.7.3-1.1,0-.2.1-.4.1-.6,0-.8,0-1.6-.1-2.4-.7-3.1-2.8-6.5-2.8-6.5l55.7-15.6-86.7,24.2s-5.5,1.8-7.4,1.8-3.6-.7-5.4.5c-1.7,1.2-6.9,4.6-9,6.9-2,2.3-4.8,7.1-5.7,8.6-.9,1.5-3.5,3.1-4.6,6-1.1,2.9-2.3,5.6-2.8,6.9-.5,1.3-1.5,5.2-2.3,6.7-.8,1.5-10.7,13.3-10.7,13.3l3.1,2.5s.6,1.1,1.5.2c.9-.9,1.8,1.3,2.3,2.2.5.9.9,2.7-1,3.5-1.9.8-2.5,1.1-.8,2.4,1.7,1.4,4.3,5.3,4.5,7.3.2,2,0,5.7-2.8,5.7-2.8,0-5.1.5-4.9,2.7,0,0-2.3,1.7-3.1,4-.9,2.2-.9,3.2-3.2,4.6-2.3,1.4-5.3,2.7-5.7,4,0,0-3.8-2.1-9.1-.2-5.3,1.9-7.7,4.6-7.7,4.6,0,0-2.8.3-5.4-1.6-2.6-1.9-5-1.8-8-1.8s-8.4,2-10.4,2.4c-2,.5-9.7.6-14.6,3.1-4.9,2.6-7,3.6-7,5.6,0,1.9,0,7,0,7,0,0,1.9,0,1.9,2.2s.6,4,1.4,3.6c.8-.4,2.2-1.2,3.2.5,1,1.7,2.4,3.2,2.1,4.5-.4,1.2-1.7,3.3-3.4,5-1.8,1.7-2.2,3.4-2.2,4.4s-1.5,2.5-3.2,4c-1.7,1.5-9.1,7.5-11.5,11.2-2.4,3.6-3.8,5.1-3.8,5.1l1.8,9,129.6-25.6s6.5-2.2,12.1,2.7c5.7,4.9,8.4,11.6,11.3,14.6,3,3,7.6,2.7,8.9,4.3,1.3,1.6,28.9,8.4,28.9,8.4l-.7,3.5c.3-1.3,2.7,1.9,2.7,1.9l1,2.7s-2.2,1.9-3.2,4.7c-1.1,2.8-.8,5.5,1.8,5.5s1.8-1,2-2c.2-1,1.9-2.8,2.2-2,.3.8,1.5,2.1.5,3-1,.9,3.8-1.8,4.4-2.3.6-.6,2.1-.8,5.8-2.9,3.7-2.1,8.9-5.8,11.8-7.6,2.9-1.8,5.1-2.2,6.6-3.5,1.5-1.3,4.3-3.4,4.7-2.8.4.7-1.2,2.6-5.9,5.4-4.7,2.8-9.3,4.8-8.6,6,.8,1.2,7.1,1.3,17.6-8,10.5-9.4,9.8-9.6,14.3-12.6,4.5-3,8.3-6.8,7.1-7.8-1.2-1-4.8,1.8-6.4,2.9-1.7,1.2-3.8.1-3.8.1l-1.3,2.1-3.4.8s-1.2,2.7-1.5,3.2c-.4.6-1.1,1.1-1.3,1.6-.2.5-1,3.7-2.2,2.7-1.2-1-3.5-1.7-1.9-3.1,1.7-1.4,2.9-2.2,3-3,.1-.9,1.4-1.7,1.4-2.8s1.9-3.1,2.8-3.4c.9-.3,2.3.3,2.3-1,0-1.2-3-1.8-4.9-.7-1.9,1.1-3.1,5.3-3.6,6.2-.5.9-4.6,2.9-6.6,4.2-2,1.3-8.7,3.9-11.9,4h-.7c0,0-.5,3.6-2.6,3.8-2.1.2-4.9-.8-6.1.2-1.3.9-1.3,2.8-1.3,2.8,0,0-3.2-.6-4,.5-.9,1.1-.9,3.4-.9,3.4,0,0-.9-.3-1.5.2-.6.5-.6,2.3-.6,2.3,0,0-2.5-.2-3.3-.2l-1-2.7s4.8-4,5-6.4l-2.3-4.4,3.8-5.9s-1.9-3.5-3-9.2c-.1-.7-.3-1.4-.5-2.1-.9-2.9-1.6-5.6-1.9-6.8-.8-3.3-2-14.9-2.2-17.3-.2-2.4-1.3-25.8-1.6-34.3,0-.2,0-.3,0-.5h-.2s.2,0,.2,0c0,0-2.1-7.7-2.6-12.8-.8-3-1.7-6.1-2.6-8.8Z" fill="#999" stroke="#fff" stroke-miterlimit="10" stroke-width="2"/><path d="m1167.4,191.4l-32.4-87.8-1.8,2-3.1-.2s-2.4,1.6-2.7,2.6c-.4,1-1.4,1.5-1.4,1.5l.7,6.3v1s-1.4,3.4.8,5.8c1.3,1.5.9,2.7.4,3.8-.3,1.2-.4,2.4,0,4,.6,1.5,1.6,3.2,2.1,4,.2.4.3,1.2.3,2.2,1.3,4.4-.1,10.9-4.4,12.6,0,0,0,0,0,0-.2.4-1.1.5-2,.7-1.4.6-2,1.3-2.4,2,0,.5-.1,1.1-.1,1.9.2,2,.7,4.6.7,6.2v8.4c0,2.2.5,6.2,0,7.3-.2.3-.5.6-.9.9,0,0,0,.1-.2.2-.3.2-.5.4-.7.6-.5.6-.9,1.2-1.3,2v3.9c0,.2-.1.5-.3.9-.2,1-.6,1.9-1.2,2.3-.1,0-.2.1-.3.2-.2.3-.3.4-.3.4,0,0,.3.4.7,1.1,2.4,1.8,3.2,6.7,3.3,10.3,0,0,0,.1,0,.2.2,1.1.4,2.2.7,3.2.3.8.8,2,1.1,2.9.1.2.2.3.3.5,0,0,0,0,0,.1,0,.2.2.4.2.4,0,0-.5.7-.9,1.4-.2.5-.3,1.2-.4,1.8,0,1.5.3,4.6.3,4.6v3.2s-.4-4.8-.3-7.2c0-.2,0-.4,0-.6,0-.1,0-.2,0-.3-.5,3.1-.3,7.6-.3,8.3l38.6-8,1.3-4.3h.2c0,0,0-.3,0-.3l2.5-.4h.4c0,0,2.7-2.8,2.7-2.8l1-1.1,4.3.5-4.3-.5-1,1.1.8-.8,5.1.6c.5-.8,1.3-2.3,1.5-3.1-4.1,1.2-7.2-6.5-7.2-6.5Z" fill="#999" stroke="#fff" stroke-miterlimit="10" stroke-width="2"/><path d="m1121.8,208.6c0,0,0-.2,0-.2,0-.3.1-.7.3-1.1,0-.3.2-.5.3-.7.2-.6.4-1,.6-1.2-.4-.7-1.5-2.7-1.9-5.7-.2-.8-.3-1.7-.3-2.3-.2-1.5-.4-3-.5-4.2,0-.3-.1-.6-.2-.8,0-.2,0-.3-.1-.4-.2-.6-.9-1.6-1.5-2.6-.6-.8-1.3-1.4-1.7-1.7-.3-.1-.6-.2-.9-.2,0,0,2.8-1.5,2.8-5.7s.1-1.6.4-2.2c0-.1,0-.2,0-.3v-.5c0-.6.8-1.2,1.6-1.7.7-.9,1.3-1.9,1.4-3.7,0-.1,0-.3,0-.4,0-.3-.1-.6-.1-.6,0,0-.5-14.4-.6-18.3,0,0,0-.1,0-.2,0,0-.2-.5-.1-1.2,0-.5,0-.9,0-1.2,0-.4.3-.6.6-.8.5-.7,1.2-.8,2.3-.8s0,0,.1,0c.3-.1.6-.2,1-.3,0,0,.1,0,.2,0,.2-.1.4-.2.6-.4.8-1.1,3.3-4.2,3.6-5.9.2-1.3.6-4.1.6-6.3,0-.2,0-.3-.1-.5-.1-.5-.3-.9-.5-1.3-.6-1.1-1-2-1.3-2.8-1-1.5-2.1-2.9-1.1-3.9,0-.5.4-1.2.7-1.9.1-1.6-.5-3.6-1.3-4.9-.1-.2-.2-.4-.3-.6-.6-1.4-.4-3.2-.3-3.9l-55.7,15.6s.5.7,1.2,1.8c-.4-.8-.7-1.3-.7-1.3,0,0,.3.5.7,1.3,1.1,1.8,2.4,4.7,1.8,7.1,0,.5-.1.9-.3,1.4-.1.8-.2,1.5-.2,2.3,0,1.1.4,2.2.9,3.3,1.2,2.1,3.1,4.3,4.3,6.9,2.2,4.6,1.6,7,1.3,11.9,0,0,0,0,0,0,0,4.4.5,7.5,1.4,10,.1.3.2.5.3.8.2.4.4.9.7,1.3.3.6.6,1.2.8,1.9,0,0,0,.1,0,.2.6,1.1.9,2.9,1,4.7,0,.5.1,1,.2,1.4.2,1.5.2,3,.1,4.3,0,.3,0,.4,0,.4,0,0,.8-1.2,1.8-2,.9-1.1,2-1.7,2.4,0,0,.1,0,.3,0,.4.2.5.3,1.2.5,2.1,0,0,0,0,0,.1.5,2.1,1.5,5.2,2.6,8.8,1.1,2.3,2,4.1,2.1,6.6,0,.2,0,.5,0,.7.6,2.3,1.2,4.6,1.6,6.9.5,2.4.9,4.6,1,6.4h0s25.3-5.3,25.3-5.3c0-.8-.3-5.2.3-8.3Z" fill="#999" stroke="#fff" stroke-miterlimit="10" stroke-width="2"/><path d="m644.7,199s-1.3-2.1-2.6-4.2c-.2-.4-.5-.7-.7-1.1-.6-1.1-1.2-2.2-1.6-2.9-.6-1.3-.7-2.7-.8-4.2-.2-1.9-.2-3.2-.1-3.7,0-.2,0-.4,0-.6-.2-1.8-.9-4.6-1.9-6.4-.5-1-1.1-1.7-1.6-1.9-.3-.1-.7-.3-1-.6-1.5-.9-3.5-2.4-4.4-4.9-1.1-3.1-3.6-4.5-5.1-4.5s-6-1.6-10.7-4c-4.7-2.4-12.7-6.2-14.1-7.1,0,0-.2-.1-.3-.2-.9-.1-1.4,0-1.4,0,0,0-1-.5-1.9-.8-.5,0-1,0-1.3,0-1.1,0-3.2.4-3.9-1-.4-.2-.7-.5-.7-1s0-.1,0-.2c-1.2-.9-4.2-.6-7.3-.5-1.1,0-2.2,0-3.3-.3-2.3-.2-4-1.2-5.4-2.2-.3-.2-.6-.4-.9-.7-.3-.2-.6-.4-.8-.6-.8-.5-1.6-1.1-2.6-1.8-1.6-.8-3.3-1.4-4.9-2.1-2.2-1-3.2-3.3-3.4-4-3.2.2-6.8-1.9-6.8-1.9,0,0-4.3,0-5.4.5-1.1.5,3-3.2,2.4-5.1-.5-1.9-1.9-2.7-2.4-3.8-.5-1.1.8-4.3-4-4.1-4.9.3-6.2,3.2-8.9,4.3-2.7,1.1-3.5,1.4-5.7,1.4s-2.2,1.1-4,1.6c-1.9.5-13.8,4-16.7,5.7h-2.3c0-.1-1.2,25.4-1.2,25.4,0,0-2.4,3-6.3,6.9-3.8,3.8-10.5,3.2-10.5,3.2,2.8,5.9,1.4,14.8,2.8,16.4,1.4,1.6,2.6,6.9.2,10.1-2.4,3.2-3.4,7.5-3.4,11.3s2.4,7.7,4,8.3c1.6.6,2.8,2.2,4.7,5.5,1.8,3.2.8,5.5,7.7,5.1,6.9-.4,10.5,6.7,11.3,9.5.8,2.8,2.8,3.6,8.7,5.7,5.9,2,5.7,4.5,5.5,6.1-.2,1.6-2,3.6,3.2,4.7,5.3,1,3.4,4,3,6.1-.4,2-.6,3.2.6,4.5,1.2,1.2,1.2,5.3,1.2,5.3,0,0,6.4,6.1,4.8,9.6,0,0,0,0,0,0-.5,2.2-2.7,6.7-2.7,10.9s2.6,6.8,3.9,8.8c1.1,1.5,2.3,3,3.5,4.5,1,1,2.2,1.8,3.1,2.1,2.3.8,4.2,3.4,4.2,3.4l89.9-2.3h.4c-.1-1-.2-1.8-.2-2.7,0,0,0,0,0-.1-.3-2.8,1.6-11,.6-15.7-.1-.5-.2-1-.3-1.5-.6-2.1-1.3-4.6-2.1-7.3-.7-2.2-1.3-4.5-2-7-1.5-6-1.7-11.2-.6-16,.5-3.2,1.2-6.5,1.7-9.3.3-2.2.6-4.4.8-6.1.5-3.4.7-6.4,2.3-8.3.3-.5.6-.8,1-1,2.4-1.7,3-5.2,3-8s2.7-9.9,6.5-16.9c3.8-7.1,6.6-19.4,7.9-24.9.8-3.4-1.5-.9-3.6,2-.9,1.7-2.2,4.4-3.9,5.8,0,0-.1.1-.2.2-1.2,1.6-2.6,3.7-3.6,6.7-.3,1.1-.5,2.1-.5,2.9,0,2.4-1.1,4.5-3.5,6.6-2.9,3.5-6.8,6.4-8.5,7.7-2.7,2.2-5.4,10.5-5.9,13.1-.2,1.2-.9,2.4-1.9,3-.3.3-.7.4-1.2.4-2.8,0-3.3-5.9-1.1-8.2.6-.6,1.2-1.1,1.9-1.6.7-.7,1.4-1.3,2-1.7,1.3-.8,2.1-2.5,2.6-4.3,0-.8.2-1.5.4-2.2,0-.1,0-.3,0-.4.2-2.3,3.1-6.5,5.4-9,1.1-1.7,1.9-3.4,1.6-4.5,0,0,0,0,0,0,0-.1,0-.2-.2-.3-1.1-1.1-2-2.3-2.8-3.5,1.3,2.2,2.6,4.2,2.6,4.2Z" fill="#999" stroke="#fff" stroke-miterlimit="10" stroke-width="2"/><path d="m753.9,144.9s-2.9.1-4.5-1.3c-.2-.2-.5-.4-.8-.6-1.6-.9-3.9-2-5-3.8-1.3-1.2-2.5-2.4-3.4-3-.4-.2-.7-.4-.8-.5-.2,0-.3-.4-.4-.8-.3-.9-.7-2.2-.7-3.1-.5-1.3-5.2-6.2-5.2-6.2,0,0-1.1-.5-2.4-.4-.3,0-.5.2-.8.3-.9.5-2.7,1.8-4.8,2.9-1.7,1.1-3.6,1.9-5.5,1.5-3.6-.3-6.2-3.4-5.4-6.6.1-.5.3-1.1.4-1.6.3-2.8.5-4.4.3-5.3-.2-.5-.5-1-.9-1.4-.1,0-.3-.2-.4-.3-1-.6-2.3-1.3-3.7-1-1.8.6-3.1,2.5-3.5,3,0,0,0,0,0,.1,0,0-1.2.5-2.2.8l-7.1,2.5c-1.5.6-2.6,1.1-2.6,1.1h-11.7c0,.1,0,0-.1,0-1,.1-2.5.5-3.7,1.9-.4.6-.8,1.4-1.1,2.5,0,0-1.8.6-3.8,1.7-2.3,1.5-4.8,3.8-4.6,6.1.6,4.1-1.5,5-4.1,3.6-.7-.2-1.4-.7-2.1-1.3-2.8-2.5-8.8-3.5-11.6-1.7-1.3.8-2.4.7-3.4.2-1.5-.1-2.5-1-4.2-2.9-2.7-2.9-5.4-5-8.5-6.2-3-.6-4.3-1.7-5.9-2.7-.2-.1-.4-.3-.7-.4,0,0-.2,0-.2-.1-.2-.1-.5-.2-.7-.3-.3-.1-.7-.2-1-.3-.1,0-.2,0-.3,0-1-.2-2.2-.4-3.5-.3,0,0-.5.3-1,0-.8.2-1.6.5-2.2,1.1l1.7-.8-2.1,1.7s-4.3,4.6-6.7,4.8c0,0,0-.3,0-.7-.3-1.7-1.4-10.5,1.2-15.5.2-.5.4-.9.6-1.2,2.3-3,2.5-2.5,5.6-4.4,1.3-.9,1.7-1.1,2.5-2.2,1.3-1.7,3.1-3,5-3.2,1.3-.5,2.9-1,3.9-1.7.7-.7,1.2-1.5,1.1-2.5-.4-1.4-1.4-3.4-2.3-4.4-.5-.2-3.6-1.5-6.7.7-3.3,2.4-3.9,1.5-5.4,1.8-1.1.2-1.9.2-2.8.9-.5.5-.9,1.4-1.8,2.8-.7,1.1-1.4,2-2.2,2.7-.9,1-1.9,1.9-3.2,2.3-.2,0-.4.1-.6.2-1.1.5-3.1.8-4.8,1.2-1.8.5-3.1,1.3-3.1,2.6s0,1.8,0,2.8c.1,1.5,0,3.2-1.2,4.7-.6.8-1.4,1.5-2.7,1.8,0,0,0,0,0,0-.2.1-.4.2-.7.3-3.2,1.1-5.3,2-7.1,2.6-.7.3-1.1.5-1.1.5,0,0-.3,0-.7,0-1.1.3-2,.4-3.1.4-1.4.3-2.7.7-3.4,1.3-1.4,1.3-3.4,3.4-5.1,3.9-1.1.5-2.4.8-4.4.8s-.4,0-.6,0c-1.6.4-3.2,1.2-4.3,2.6-1,1.3-1.3,3.3-1.6,5.1.3,1.9.4,3.4-1.6,3.6,0,0,.8,3.2,3.9,4,1.7.4,3,1.2,4.2,2,1,.5,2,1.1,2.9,2,.2.1.3.3.5.4.3.2.6.4.9.7,1.6,1,3.4,1.8,5.4,2.2.2,0,.5,0,.7,0,3.8,0,9.3-.6,9.8.8.3.2.5.4.6.8,0,.2.1.3.2.4,1.2.6,3.4.6,3.9.6s.8.2,1.3.4c1.1.1,2.4.4,3.3.9,1,.2,2.6.5,4.4,1.5,3.4,1.9,15.9,8.9,19.2,9.2,3.2.3,5.7,2,6.7,4.5.9,2,2.8,4.3,4.4,5.4.4.2.7.4,1,.6.6.2,1.1.9,1.6,1.9,1,1.8,1.9,4.4,1.9,6.8,0,0,0,0,0,.2,0,1.2,0,2.5.1,3.7.3,2,.9,4.5,2.3,7.1.2.4.4.7.7,1.1.7,1.2,1.6,2.3,2.8,3.5,0-.1-.1-.3-.2-.5-.2-.4-.4-.7-.4-.7,0,0,.2.3.4.7-.2-1.3.5-4.1,1.3-7.2.6-3.4,1.4-7.3,2.3-9.8.4-1.1,1-2.4,1.7-3.8.6-1.3,1.4-2.6,2.2-4,2.9-4.9,7-10,11.5-12.5,1.9-1.4,3.7-2.2,4.7-2.2.5,0,.8.2,1.2.5,2,.3,2.3,2.3,1.9,4.5,0,.3,0,.6-.2.9,0,.3-.1.6-.2.9-1.1,4.1-1.7,9,1.3,9s2.1-.7,1.9-1.7c-.2-.8-.6-1.7-.9-2.6-.5-1.6,0-2.6.7-3.6.2-.6.5-1.1.9-1.6.2-.2.5-.6.8-1,1.2-2.4,2.9-6.8,2.9-8.2,0,0,7.7-.2,14.4-3.5,3.1-1.6,6.1-3.9,8-7.4,0,0,2.5-.2,6.2.2,2.4.2,5.2.6,8,1.6,7.1,2.5,8.4,4,7,6.1,0,0,0,0,0,0-.2.6-.4,1.2-.4,1.8.1.9.6,1.8,1.2,2.4.2.1.4.2.6.3.5.1.9.2,1.3.2.3,0,.6-.2.9-.5.3-.2.5-.5.7-.9.1-.4.2-.8.3-1.4.1-1.5.4-4.3,1.4-6.1.3-.6.7-1.1,1.3-1.3,0,0,0,0,0,0,.1,0,.2-.1.4-.1.2,0,.4-.1.6-.1,2.5-.2,3.9,0,4.7-.1.3-.1.5-.3.7-.6.2-.3.5-.4,1-.4,1-.7,2.3.2,4.3.6.2,0,.4,0,.6.1,1.1.2,2.2.5,3.2.6,1.5.2,3.4.7,5.1,1,2,.2,3.5,0,3.6-.9.1-2.4-.1-2.2-.1-2.2Z" fill="#999" stroke="#fff" stroke-miterlimit="10" stroke-width="2"/><path d="m1002.3,178.4c-.8,1.5-10.7,13.3-10.7,13.3l3.1,2.5s.6,1.1,1.5.2c.9-.9,1.8,1.3,2.3,2.2.5.9.9,2.7-1,3.5-1.9.8-2.5,1.1-.8,2.4,1.7,1.4,4.3,5.3,4.5,7.3.2,2,0,5.7-2.8,5.7-2.8,0-5.1.5-4.9,2.7,0,0-2.3,1.7-3.1,4-.9,2.2-.9,3.2-3.2,4.6-2.3,1.4-5.3,2.7-5.7,4,0,0-3.8-2.1-9.1-.2-5.3,1.9-7.7,4.6-7.7,4.6,0,0-2.8.3-5.4-1.6-2.6-1.9-5-1.8-8-1.8s-8.4,2-10.4,2.4c-2,.5-9.7.6-14.6,3.1-4.9,2.6-7,3.6-7,5.6,0,1.9,0,7,0,7,0,0,1.9,0,1.9,2.2s.6,4,1.4,3.6c.8-.4,2.2-1.2,3.2.5,1,1.7,2.4,3.2,2.1,4.5-.4,1.2-1.7,3.3-3.4,5-1.8,1.7-2.2,3.4-2.2,4.4s-1.5,2.5-3.2,4c-1.7,1.5-9.1,7.5-11.5,11.2-2.4,3.6-3.8,5.1-3.8,5.1l1.8,9,129.6-25.6s6.5-2.2,12.1,2.7c5.7,4.9,8.4,11.6,11.3,14.6,3,3,7.6,2.7,8.9,4.3,1.3,1.6,28.9,8.4,28.9,8.4-16.9-142.9-93.9-125.2-93.9-125.2Z" fill="#bd141b" stroke="#fff" stroke-miterlimit="10" stroke-width="2"/><polygon points="1081.9 129.3 1126 116.9 1081.8 129.3 1081.9 129.3" fill="#bd141b" stroke="#fff" stroke-miterlimit="10" stroke-width="2"/><path d="m1095.9,316.5c-1.1,2.8-.8,5.5,1.8,5.5l-.6-7.7c-.4.6-.8,1.4-1.1,2.2Z" fill="#bd141b" stroke="#fff" stroke-miterlimit="10" stroke-width="2"/><path d="m1096.4,307.2l-.3-3.5-.7,3.5c0-.5.5-.3,1,0Z" fill="#bd141b" stroke="#fff" stroke-miterlimit="10" stroke-width="2"/><path d="m696.3,301.9c-1.3,7.8-1.1,13.5-7.2,19.8-5.3,5.5-8.3,8.1-10.3,10.5l68-4,.8,2.4,53.6-4.3c0-2.2,2.5-5.5,3.8-7.3,1.4-1.8,3-3.9,3.1-6.7,0-2.8.9-5.1,1.9-6.8,1-1.7,2.8-7.2,2.8-9s-3.2-5.1-2.2-7.5c1-2.5,3.3-1.6,3.9-.9.2.2.8-.5,1.6-1.7l-119.2,8.7c0,2.1-.2,4.4-.6,6.8Z" fill="#bd141b" stroke="#fff" stroke-miterlimit="10" stroke-width="2"/><path d="m961.1,902.2c-1.9-3.1-1.7-5.4-1.7-5.4,0,0,1.1.3,2.1-.8.3-.3.5-.6.6-1l-2-7.1c-.9-2.2-2-4.4-3-4.5-1.9,0-.2,2.7-.2,2.7,0,0,.7,3.2.7,5s-.6,1.8-.6,1.8c0,0-3.3-1.2-4.7-5-1.4-3.8-2.1-5.6-4.3-9-2.2-3.4-5.1-9.3-5.1-10.7s1.8-2,2.6-.7c.9,1.3,3,2.8,3.9,2.5.9-.4,2,4,3.7,2.5,1.7-1.5,1-5.2-3.3-10.9-4.3-5.7-5-6.3-6.1-5.5-1.1.8-.7,2.3-.7,2.3,0,0-1.3.6-2.4-1.5-1.1-2.1-3-3.6-5.3-3.4l-2.7-3.2s-1-1.3.2-2.5c1.2-1.3,2.5-.2,2.5-.2,0,0,3.6,3.4,4.4,2.4.8-1-1.7-3.6-1.7-3.6,0,0-2.1-2.6-2.6-3.9-.5-1.3-1.5-2-2.7-3.7-1.3-1.7-3.5-4.7-4.3-7.5-.8-2.8-.8-5.9-1.7-8.3-.9-2.4-1.5-5.3-2.9-7-1.4-1.7-2.3-3.1-2.4-5-.1-1.8-.1-6.7-1.1-9.3-1-2.6-1.6-3.4-2.4-5.4-.8-2-1.4-4.5-.8-5.6.7-1.1,0-6,0-6.4l-1.1-.2c-8.1,4.3-14-1.1-16.7-1.1s-2.2,5.4-2.2,5.4c0,0-1.6,8.9-5.4,10-3.8,1.1-4-5.7-4-5.7l-98.3,3.8-6.2-9.7-91.5,5.9c3.5.8,2.7,10.8,2.7,13.5s2.4,4.6,2.7,7.3c.3,2.7-5.1,1.9-5.1,4.6s3.5,3.7,3.5,3.7c0,0,9.7-.3,9.3-4.8-.4-4.5-2-5.7-.6-5.8,1.4-.1,1,2.6,2.4,2.5,1.4-.1,2-1.2,2.5-3.3.6-2.1.8-3.7,2.2-3.5,1.4.2,4.4,2.2,2.1,4.9-2.3,2.7-5.9,4.4-5.6,7.4.3,3,3.8,4.4,7.8,4.1,4-.4,11.6-.8,11.6-3.8,0-3-6.2-.9-8.8-.5-2.6.4-5.9.2-5.8-1.1.1-1.3,3.8-2.3,7-2.3s6.5-.8,6.5-.8c0,0,1.7-4.7,5.4-5,3.7-.3,10.9.3,10.8,2.5-.1,2.2-3.1,3.6-4.6,2.9-1.5-.7-5.7-.9-5.7.4s2.1,3.7,5.3,3.3c3.2-.5,8.5-3,10.9-2.5,2.5.6,6.8,4.1,7.9,5.5,1.1,1.4,5.2,2.4,4.4-.9-.8-3.3-.5-7.6,3.2-7.4,3.7.2,3.4,2.7,2.8,3.8-.7,1.1-.6,4.5,1.4,4.4,2-.2,4.3,0,4.4,1.5.1,1.5-1.1,3.3-3.2,2-2.1-1.3-5.6-2.7-5.6-2.7,0,0,.3,3.1,1.9,4.7,1.6,1.6,7.8,5.1,7.8,8.1s.2,6.2.2,6.2c0,0,0,3.1,2.6,2,2.6-1.1,4.5-2,6.8-2.2,2.3-.2,2.9-2.2,2.9-2.2,0,0,1.3-.8,2.7-.3,1.5.5,4.3-1.6,4.8-2.2.6-.6,2.8-.8,3,.5.3,1.3.3,1.5-1.2,2.7-1.5,1.3-4.5,3.3-3.1,4,1.4.7,4.6.8,6.8-1.4,2.2-2.2,3.5-4.3,2-6.1,0,0,3-1.2,2.2-3-.8-1.9,4.2-2.9,6.4-2.6,2.2.3,4.5.5,3.7-2.8-.8-3.3-.6-5.3,1.9-5.4,2.5-.1,2.9-.8,2.9-1.9s3.2-1.8,5-.8c1.7,1,3.7,1.9,5.2,1.9s5.1-1.4,5.2,1.8c0,3.2-.7,7.9,2.6,8.2,3.3.3,3.6.3,5.6,1.6,2,1.3,3.8.1,4.3-.3.5-.4,3.7.3,2.5,2.6-1.2,2.3-2.3,5.2,1.7,7.6,4,2.5,9.1,2.8,9.1,6.3s.2,9.4.2,9.4c0,0,6.7.1,10.4-3.7,0,0,1.3-1.7,2.6-1,1.4.8,2,2,.9,3.9-1.1,1.9,0,3.4,1.7,5,1.7,1.6,4.4,3.2,4.8,7.9.5,4.6,1.2,8.2.8,11.5-.4,3.3-.6,5-2.2,8-1.7,3.1-2.9,5-3.6,7.6-.7,2.6-2,4.2-1.7,7,.3,2.7-.6,5.4,2.4,6.3,3,.9,4.4,1.6,4.6,3,.3,1.4,1,4.1,2.6,3.9,1.6-.1,3.9-3.1,1.7-6.9-2.2-3.8-3.2-5.6-3.7-8-.5-2.4,2.3-3.5,3.7-1.3,1.5,2.2,1.3,8.4,3,8.8,1.7.4,2.2-.6,2.1-2-.1-1.4,0-3.4,1.2-3.4s3.6,2.3,3.2,5.4c-.4,3-1.9,5.2-2.3,6.6-.4,1.5-1.3,3.3.8,4,2,.6,3.9,2.6,1.8,3.4-2.2.8-3.2-1.7-3.7.2-.5,1.8-.6,2.8-1.9,2.4-1.3-.4-3.7-1.8-5.3-1.3-1.6.5.8,2.6.8,2.6,0,0,2.3,2,2.1,3.8-.2,1.9-1.9,4.4-1.9,4.4,0,0,2,3.6,3.4,4.9l78.4-33.7c-.9-.4-2.8-3-4.7-6.1Z" fill="#bd141b" stroke="#fff" stroke-miterlimit="10" stroke-width="2"/><path d="m643.8,247.5c.3-2.2.6-4.4.8-6.1.5-3.4.7-6.4,2.3-8.3.3-.5.6-.8,1-1h-44.6s-26.8-40.3-110.5-43.9c1.4,1.6,2.6,6.9.2,10.1-2.4,3.2-3.4,7.5-3.4,11.3s2.4,7.7,4,8.3c1.6.6,2.8,2.2,4.7,5.5,1.8,3.2.8,5.5,7.7,5.1,6.9-.4,10.5,6.7,11.3,9.5.8,2.8,2.8,3.6,8.7,5.7,5.9,2,5.7,4.5,5.5,6.1-.2,1.6-2,3.6,3.2,4.7,5.3,1,3.4,4,3,6.1-.4,2-.6,3.2.6,4.5,1.2,1.2,1.2,5.3,1.2,5.3,0,0,6.4,6.1,4.8,9.6,0,0,0,0,0,0-.5,2.2-2.7,6.7-2.7,10.9s2.6,6.8,3.9,8.8c1.1,1.5,2.3,3,3.5,4.5,1,1,2.2,1.8,3.1,2.1,2.3.8,4.2,3.4,4.2,3.4l89.9-2.3h.4c-.1-1-.2-1.8-.2-2.7,0,0,0,0,0-.1-.3-2.8,1.6-11,.6-15.7-.1-.5-.2-1-.3-1.5-.6-2.1-1.3-4.6-2.1-7.3-.7-2.2-1.3-4.5-2-7-1.5-6-1.7-11.2-.6-16,.5-3.2,1.2-6.5,1.7-9.3Z" fill="#bd141b" stroke="#fff" stroke-miterlimit="10" stroke-width="2"/><path d="m538.4,264.9c-1.2-1.2-1-2.4-.6-4.5.4-2,2.2-5.1-3-6.1-5.3-1-3.4-3-3.2-4.7.2-1.6.4-4.1-5.5-6.1-5.9-2-7.9-2.8-8.7-5.7-.8-2.8-4.5-9.9-11.3-9.5-6.9.4-5.9-1.8-7.7-5.1-1.8-3.2-3-4.9-4.7-5.5-1.6-.6-4-4.5-4-8.3s1-8.1,3.4-11.3c2.4-3.2,1.2-8.5-.2-10.1h-45.7s-31.8,5.7-12.4,34l38.8,47.6,66.1.3s0-4.1-1.2-5.3Z" fill="#bd141b" stroke="#fff" stroke-miterlimit="10" stroke-width="2"/><path d="m473.8,270.2s64.7,60.3,29.5,122.8l14.4-.3s7.8-.8,9.2.1c1.3.9,4.5,5.4,4.9,5.4s2.5-1.5,3.6,1c.4.5.6,1.2.9,2.2,0,.2.1.4.2.6,1.4,2.5,4,3.3,4,3.3,0,0-.3-11.5,4-16.4.4-.4.7-.8,1.1-1.2,1.4-1.7,2.7-3.1,3.9-4.4,1.7-2.2,2.8-4.8,2.9-9,0-1.1,0-2.2.1-3.2,0-2.2-.1-3.9-.1-3.9,0,0,.4-2.4,1.7-4.4.5-1.1,1.2-1.8,2.1-2.2.5-.3,1-.6,1.6-.7,0,0,0,0,0,0,2.4-1.5,3.6-4.9,6.3-6.5,1.3-.8,3.9-2.1,6.6-3.8,2.9-2.2,6.6-5.6,8-8.6,1.1-5.5-.7-8.7-2.9-9.7-.5-.2-.9-.4-1.2-.7l-.5-.2-.3-.6c-.7-.7-1.1-1.5-1.8-2.6-.3-.5-.6-1.2-1-2l-1.1-1.9s-1.5-3.9-1.5-5.3c0,0-10.1-5.3-11.7-8-1.8,0-4.7-2.7-7.7-6.1-1.4-1.3-2.6-2.8-3.2-3.9,0-.2-.2-.3-.3-.5-.7-1-1.5-2-2.1-3-4-5.8-.6-13.3,1-16.7,0-.3.1-.5.1-.7,0-1.8-4.9-8.9-4.9-8.9l-66.1-.3.3.3Z" fill="#bd141b" stroke="#fff" stroke-miterlimit="10" stroke-width="2"/><path d="m375.7,273.1c2.6,3.1,4.9,8.7,3.2,18.4-.1.7-.2,1.4-.4,2.1,0,.5-.1,1-.2,1.3-.4,3.4-1.2,7.5-.2,10.1,1,2.6.6,6.1.6,6.1,3,2.4,1.2,8,1.2,8,3.1,3,5.7,7.7,5.5,10.2,0,.9,0,1.6.1,2.2.3,1.6.8,2.8.8,2.8,2.3.2,3.9,4.9,3.9,8.6s0,2.9,0,4.7c.3,1.8.7,3.8,1.2,5.5.5,1.3,1.3,2.6,2.4,3.6,4,3.9,3,15.1,3,24s0,.5,0,.8c.2,1.7.6,3.1,1,4.3,1,2.4,2.6,4.4,4.2,5.9,1,.9,2,1.6,2.9,2.2.3.2.6.5.8.7l97.5-1.5c35.2-62.5-29.5-122.8-29.5-122.8l-.3-.3-95.1-.5-6.5.2c1.6.9,2.8,2.1,3.8,3.5Z" fill="#999" stroke="#fff" stroke-miterlimit="10" stroke-width="2"/><path d="m622.1,541.2c-2.7-1.6-10.8-7.8-12.7-11.9-1.9-4.1-.8-11.3-2.2-15.4-1.3-4-4.1-7.8-6.5-7.8s-5.1-3-5.1-3c0,0-9.7-10.8-14-15.4-4.3-4.6-.3-5.4-.3-5.4,0,0,5.4-4.1,3.5-12.7-1.9-8.6-7-10-10.8-9.4-3.8.5-7.3-1.6-7.6-4.9-.3-3.2-1.6-6.8-5.1-8.4-3.5-1.6-3.5-6.5-3.5-6.5,0,0-5.9-2.7-8.1-3.5-2.2-.8-4.6-3.8-7.8-6.5-3.2-2.7,1.1-8.9.5-13-.5-4.1-3-12.1-3-12.1-1.5,0-2.7-2-3.2-3.9-.5-1.9-.7-2.8-2.8-2.8s-2.4-.4-4.3-3.4c-1.9-3-5.7-2.6-5.7-2.6l-20.1.3-70.6,62.6,2.4,87.9-.4,22.7,153.5-4.5s.1,2.4,1.5,4.1c1.4,1.6,1.6,2.7.5,4.9-1.1,2.2-1.1,7.3,2.2,7.3s14.6-1.3,14.6-1.3c0,0,2.4-3.2,2.4-7s.8-6.2,1-6.9c0,.2-.2,0-.2-3.1s3.5-3.5,3.5-3.5l4.6.3c8.6-1.6,6.5-13.5,3.8-15.1Z" fill="#bd141b" stroke="#fff" stroke-miterlimit="10" stroke-width="2"/><polygon points="435.1 543.5 432.7 455.6 392.1 541.8 435.1 543.5" fill="#bd141b" stroke="#fff" stroke-miterlimit="10" stroke-width="2"/><path d="m313.7,666.4c.1.2.2.4.3.6,1.1,1.6,2,3.8,2.7,5.6,2.1,4.2,4.7,8.3,8,8.3,2.4-.1,4.8-1.8,7-2.6,1.1-.5,2.1-.7,3.4-.3,2.4.4,4.8,1.9,7.2,1.9s1.3-.2,1.6-.5c.2-.2.3-.4.4-.7.8-2.4,4.3-3.2,5.1-.3.5,1.7,1.8,2.6,2.8,2.5.7-.4,1.3-1.2,1.5-1.9,0-.2,0-.4,0-.6-.3-1.6.7-4.7,1.9-5.5.2-.1.3-.2.5-.2.8-.5,1.8-.4,2.7.6,1.9,1.9,5.4,2.7,7.8,3.1.3,0,.6,0,.9,0s.7,0,1,.2c0,0,.2,0,.2,0,1.4,0,3.5,2.2,3.8,4,.6,1.8,2,3.6,4,3.7,1.2-.3,2.6-1.1,4.1-2,1.8-1.1,3.8-2.4,5.3-2.5,2.8-.2,11.2,0,11.2,0l5-.8s.7,0,2,0c0,0,0,0,0,0,3-.2,6.8-.4,9.3-.6.9-.1,1.6-.2,2.4-.2.1,0,.2,0,.2,0,0,0,3-1.1,7,2.7.1.1.3.3.4.4,1.7,1.2,3.8,2.9,6.6,5.2,0,0,0,0,0,0,3.3,2.3,6.7,4.1,8.6,3.6.9-.6,1.2-1.7,1.3-2.5h0s-5.6-121.7-5.6-121.7l-.4-22.7-42.2-1.7s-11,25.8-27,44.8c0,0-64.1,43.4-61.6,84.7,0,0,.2.2.3.3.4.5.7.8,1,1.1.2.2.4.2.5.2-.3-.9-.5-2.5.3-4.3,0-.4,0-.6,0-.8.3-1.1,5.7-5.9,8.1-1.4Z" fill="#bd141b" stroke="#fff" stroke-miterlimit="10" stroke-width="2"/><path d="m431.1,872.6c-.5-.2-1-.3-1.7-.2.1,1.4.3,2.7.5,4,1.6-1.8,2.5-3.2,1.2-3.8Z" fill="#bd141b" stroke="#fff" stroke-miterlimit="10" stroke-width="2"/><path d="m449.4,857.7c2.7-1.1,8.3-.2,10.2-.2s5.5-1.2,5.8-2.2c-2.5-5.8.6-8.8,4.2-11.2,2.6-1.8.4-3.3-1-3.9-.6,0-.9-.4-.9-.4,0,0,.4.1.9.4.5,0,1.1,0,1.8-.7,1.6-1.3,2.4-12.1.3-18.6-2.2-6.5,1.1-13.2,2.7-18.1,1.6-4.9-1.1-8.6-4.6-9.7-3.5-1.1-2.2-6.5-2.2-10.5s-.5-12.7-2.7-12.7-4.6-3-5.1-8.9c-.5-5.9-7-12.1-7-12.1l2-35.6-.8-19.1-3.1-1.4-3.7-1.9-5.7-2.8c0,1.5-.5,2.2-1.4,2.4-1.3.8-3.8.4-8.6-3.6-2.6-1.8-5.1-3.9-6.7-5.3-3.5-2.5-5.4-3.1-7.7-3.1-.4,0-1.2,0-2.4.2-.1,0-.3,0-.4,0-3.4.4-6.9.5-9,.6-4.7.3-2.1.8-6.9.8h-10c-2,0-4.3,1.3-6.5,2.5-1.6,1-3.1,2-4.1,2s0,0,0,0c-.3,0-.5.1-.7.1-2.7,0-3-1.9-3.2-3.8-.5-1.5-2.1-3.5-4-4.1-.4,0-1.1,0-2-.2-2.1-.1-4.2-.6-6.1-1.8-1.9-1.2-3.2-2.1-4.3-1.8-1.4.8-2.4,3.3-2.4,5.7,0,.2,0,.4,0,.6-.2,1.2-.8,1.8-1.5,1.9-.8.5-1.7.5-2.3-.5-1.2-2.2-1.4-4.3-3.4-3.6-1.5.4-1.6,1.9-2.6,2.6-1.3,1.5-4.7.5-8.3-1.2-.2-.1-.4-.2-.6-.2-.4,0-.9-.1-1.3-.1-.7,0-1.4.2-2.1.4-2,.9-3.9,2.6-7,2.6-3.2.2-5-2.9-6.8-5.7-.4-.6-.8-1.5-1.2-2.6-1-2-1.9-4-2.7-5.6-1.6-2.3-3.6-3.5-6.4-1.1-1,.9-1.6,1.7-2,2.6.1,1.5.6,4.3-.3,4.3.3,1,.6,1.1-.5-.2-.3-.2-.7-.7-1.3-1.4,0,0-21.5,93.2,4.6,121.3,0,0-10,31,103,33,0,0,34,6.8,23,25.9-1.2,3.7-2.2,7.1-1.3,8.5.8,1.3,3.2,2.7,5.3,1.7-1.4.8-4.4,2.6-6.6,3.3-2.8,1-2.4,3.9,1.4,3.2,3.8-.7,10.5-4.2,10.5-4.2,0,0,3.2-5.3,6-6.4Z" fill="#bd141b" stroke="#fff" stroke-miterlimit="10" stroke-width="2"/><path d="m303.5,671.2c1.1,1.8-29.3,119.1-7.4,140.3,3.6,1.8,1,10.7,115,14" fill="#bd141b" stroke="#fff" stroke-miterlimit="10" stroke-width="2"/></g></svg>